<svg width="89" height="89" viewBox="0 0 89 89" fill="none" xmlns="http://www.w3.org/2000/svg">
<path d="M11.487 26.9937C10.9218 24.2934 9.69726 23.4456 9.00646 25.2354C8.15869 27.4961 8.81807 30.0708 10.2624 30.0708C11.6126 30.0708 11.958 29.1916 11.487 26.9937Z" fill="#F38708"/>
<path d="M75.0063 78.8332C72.8398 77.9227 64.1423 74.9398 60.814 73.9664C56.8577 72.8046 56.9837 72.8988 56.858 70.8265C56.2929 58.9263 55.6963 56.5086 54.4717 57.7645C54.1577 58.0785 54.1888 64.1071 54.5342 68.5658C54.9738 74.092 55.225 74.3432 61.913 76.3213C66.1832 77.5773 67.8474 78.268 69.5115 78.896C58.5219 78.896 36.6371 78.9274 36.6371 78.8018C36.6371 78.739 39.1487 77.5145 42.1944 76.0387C48.9766 72.7732 48.3175 73.8408 48.0977 66.4934C47.7523 55.9434 47.7837 56.0062 43.2309 54.2478C40.0282 53.0233 36.3859 50.9195 34.4392 49.1926C32.9006 47.8425 32.7122 47.7483 32.3355 48.3448C31.1737 50.166 25.8359 50.637 22.9472 49.1926C10.7958 43.007 14.281 21.1847 26.872 24.7014C28.6618 25.2038 29.1328 25.2352 29.6038 24.8898C31.9273 23.2885 49.0397 22.3151 59.0246 22.2837C59.9037 22.2837 68.0675 23.2257 62.3529 21.0905C56.6068 18.924 38.6466 18.7984 30.5143 22.0639C29.7921 22.3465 29.8235 19.4892 30.5457 18.767C31.9273 17.4482 43.0108 15.6585 54.126 16.2237C59.8092 16.5063 64.9904 17.7308 67.7535 18.5786C68.6327 18.8612 69.2606 19.6776 69.2606 20.6195V21.4673C69.2606 23.9164 70.2026 25.9888 71.3016 25.9888C71.804 25.9888 72.1493 25.0154 71.8982 24.356C71.4272 23.1629 76.5452 20.023 78.9629 20.023C87.6604 20.023 87.0949 34.1211 82.0711 42.1906C77.4555 49.6008 74.3159 50.7939 65.9324 48.282C61.3481 46.9005 56.5127 46.5551 43.0739 48.2506C39.2432 48.753 40.4047 50.2288 45.3343 50.1346C57.2345 49.8834 63.7344 50.1032 63.1378 50.7312C62.4471 51.4847 59.3069 53.1803 57.2031 53.9025C53.8748 55.0642 55.6332 57.6703 58.4591 56.3516C60.5628 55.3468 64.1112 53.1489 65.6498 51.7359C66.9685 50.5428 67.0941 50.48 67.7535 50.8882C75.195 55.6294 83.2015 50.4486 87.0321 38.36C91.1454 25.3608 82.825 13.9002 73.1855 19.3322L71.4897 20.2742L71.1446 19.238C70.5794 17.5111 69.2289 16.2551 67.3136 15.5643C58.0823 12.3616 37.6419 12.2046 28.8188 16.8203C27.6256 17.4482 26.872 18.7042 26.872 20.0544V22.7861L25.9929 22.5663C13.5275 19.4264 6.46271 37.0726 16.008 47.5285C19.8387 51.7359 25.5847 53.2117 31.1423 51.4219L33.0576 50.7939L34.0938 51.8301C35.6323 53.4001 39.6197 55.598 42.6654 56.5714L45.3974 57.4191C45.7428 60.245 45.7742 59.8369 45.5858 72.1766C43.4821 73.1186 31.9273 78.2053 29.5723 78.9588C27.0604 79.7438 27.814 81.5335 29.6979 81.5963C32.2412 81.6905 40.4364 81.7533 49.9503 81.7533C63.4832 81.7533 75.6657 82.1301 75.6343 82.1301C76.9531 82.2871 77.5183 79.9008 75.0063 78.8332Z" fill="#F38708"/>
<path d="M32.4298 59.3975C32.053 57.8904 29.9807 58.2986 30.2319 59.8371C30.4831 61.4071 29.1329 63.6992 27.406 62.6944C25.6476 61.7211 25.6787 58.644 29.1954 58.6126C29.5722 58.6126 30.1063 58.4556 30.3575 58.2986C31.582 57.4822 28.4422 56.6658 26.7466 57.3566C24.3917 58.33 23.9204 62.4433 26.0241 63.5422C29.1012 65.1122 33.1834 62.4747 32.4298 59.3975Z" fill="#F38708"/>
<path d="M28.3475 28.4067C23.7633 25.0784 17.2637 27.4647 17.5149 34.9691C17.7975 42.599 22.8841 47.3716 29.8547 46.5239C32.3666 46.2099 32.4294 46.1471 31.6444 43.6666C27.9707 31.6094 30.1059 29.694 28.3475 28.4067ZM27.2486 44.6713C23.1667 43.3212 21.1886 40.3069 20.9688 35.1888C20.749 29.4742 21.9418 27.7159 24.9561 29.2544L26.4636 30.008L26.5261 32.4885C26.5889 35.2516 27.4997 40.3069 28.4731 43.1014C29.2267 45.2993 29.2267 45.3307 27.2486 44.6713Z" fill="#F38708"/>
<path d="M9.75963 18.3274C11.2668 19.4577 12.1145 18.3588 12.1145 15.3131C12.1145 11.0428 10.9528 8.8135 9.57124 10.4776C8.84904 11.3568 9.00604 17.7622 9.75963 18.3274Z" fill="#F38708"/>
<path d="M74.6923 13.8687C76.9844 13.4919 78.3974 10.2892 76.8588 8.90762C75.9169 8.05986 75.5087 8.24825 75.7285 9.4414C75.9797 10.7602 74.6923 12.7383 73.1852 11.9847C71.6466 11.2311 71.521 8.12264 75.1319 8.09125C75.8855 8.09125 76.1681 7.65166 75.6343 7.33767C73.9387 6.3015 71.0814 6.99228 70.1394 9.09602C69.0719 11.4195 71.1128 14.4652 74.6923 13.8687Z" fill="#F38708"/>
<path d="M11.2041 21.4359C11.2041 22.3778 14.6263 22.2836 18.4883 21.2475C22.0364 20.3055 18.6457 19.1752 14.815 20.0229C12.1775 20.6195 11.2041 20.9963 11.2041 21.4359Z" fill="#F38708"/>
<path d="M1.94054 20.6195C0.715966 20.8707 0.49618 21.8127 1.62655 22.0953C2.9767 22.4406 8.59712 22.0639 9.16229 21.5929C10.4183 20.5253 5.39443 19.8659 1.94054 20.6195Z" fill="#F38708"/>
<path d="M77.8009 61.8779C79.1825 62.2547 79.6221 61.6267 79.6221 59.3345C79.6221 56.3516 79.4337 55.8179 78.3661 55.8179C77.7381 55.8179 77.4555 56.0063 77.2986 56.5086C76.8276 58.424 77.1102 61.6895 77.8009 61.8779Z" fill="#F38708"/>
<path d="M70.8938 46.1159C78.1469 49.821 87.0014 33.8076 81.8834 26.209C80.5018 24.1681 77.8326 23.1947 75.7289 23.9483C73.8449 24.6391 70.3283 28.3127 70.7051 29.2547C71.1132 30.3537 70.2027 37.3556 69.2921 40.1187C67.9419 44.1378 68.0992 44.6716 70.8938 46.1159ZM71.019 42.5679C71.8354 40.213 72.7149 34.7181 72.7149 31.9236C72.7149 27.2766 77.3933 23.4145 79.9053 25.9578C82.2916 28.3441 79.8735 38.3604 75.8859 42.7249C73.531 45.2996 70.1085 45.2054 71.019 42.5679Z" fill="#F38708"/>
<path d="M76.828 69.1622C75.7604 71.9253 76.8594 74.9082 78.8062 74.5C80.2819 74.2174 80.5645 72.0509 79.4655 69.382C78.9317 68.0318 77.299 67.9063 76.828 69.1622Z" fill="#F38708"/>
<path d="M86.8125 65.1121C85.4623 64.8295 80.6583 64.7353 79.9989 64.9865C77.6126 65.8657 83.0757 67.2472 86.247 66.5565C87.5344 66.2739 87.9115 65.3319 86.8125 65.1121Z" fill="#F38708"/>
<path d="M70.9247 64.7979C70.3596 65.0177 70.4223 65.7399 71.0189 65.9597C72.5261 66.5562 77.1103 66.0853 77.1103 65.3631C77.1417 64.6723 72.3691 64.2327 70.9247 64.7979Z" fill="#F38708"/>
<path d="M59.5898 26.9934C59.0875 26.0828 51.6142 25.5176 45.7426 25.9886C40.8443 26.3654 36.1973 27.3074 33.9366 28.2179C31.8014 29.0971 32.3038 30.4473 34.439 30.0705C37.4219 29.5367 48.8511 28.4691 52.1794 28.4691C58.5533 28.4377 60.1864 28.1237 59.5898 26.9934Z" fill="#F38708"/>
</svg>
