<svg width="54" height="51" viewBox="0 0 54 51" fill="none" xmlns="http://www.w3.org/2000/svg">
<g clip-path="url(#clip0_1_808)">
<path d="M13.077 4.2055C13.077 3.37168 13.0595 2.60735 13.0814 1.84395C13.1083 0.90252 13.3549 0.490883 13.8597 0.457229C14.3644 0.423575 14.6437 0.783881 14.787 1.73638C14.8974 2.4606 14.9534 3.19253 15.0519 4.09101L37.9143 3.89402C37.9611 3.41401 37.9942 2.98244 38.0467 2.55335C38.101 2.1163 38.1554 1.67771 38.2454 1.24708C38.3547 0.724774 38.6665 0.384694 39.2302 0.379823C39.8424 0.374287 40.1937 0.740257 40.2915 1.30308C40.405 1.9549 40.4429 2.61997 40.5123 3.27933C40.5313 3.45778 40.5474 3.63666 40.5752 3.92139C41.6542 3.9774 42.7042 4.06222 43.7545 4.08104C48.3924 4.16385 51.0063 7.02376 51.9349 11.0472C52.4025 13.0728 52.5041 15.1997 52.6125 17.2889C52.8644 22.1464 53.0479 27.0087 53.2038 31.8693C53.2921 34.5926 53.2713 37.3208 53.2943 40.047C53.3411 45.5582 49.1707 48.5072 45.5049 49.5064C44.231 49.8649 42.9191 50.0692 41.597 50.1153C33.8798 50.3046 26.1609 50.5158 18.4423 50.5211C14.3257 50.5242 10.2363 49.8684 6.20938 48.9947C3.11836 48.3243 0.736275 45.4487 0.367118 42.1222C0.253702 41.0227 0.206881 39.9174 0.226916 38.8122C0.267541 35.0166 0.382583 31.2216 0.398921 27.426C0.418129 23.0045 0.374845 18.5826 0.332674 14.1611C0.321193 12.9484 0.243042 11.7699 0.681966 10.5725C1.90645 7.23276 4.30642 5.38757 7.72288 4.80527C9.09596 4.57102 10.4966 4.49957 11.8845 4.35123C12.2448 4.3127 12.6005 4.26395 13.077 4.2055ZM49.7805 16.9392C41.9319 17.1967 34.2591 17.4704 26.5848 17.6943C18.8792 17.9199 11.1709 18.0975 3.40647 18.2977C3.39852 18.3913 3.37114 18.5678 3.37092 18.7443C3.36357 24.6416 3.35887 30.539 3.35681 36.4365C3.35681 38.0202 3.34864 39.6057 3.42084 41.1868C3.46729 42.3007 3.89052 43.3654 4.62089 44.2061C5.35125 45.0466 6.34519 45.6127 7.43915 45.8113C11.8991 46.5692 16.3559 47.2726 20.9087 47.1495C25.0611 47.0368 29.2175 47.0762 33.3709 46.9919C36.6768 46.9254 39.9819 46.7961 43.2843 46.6458C44.7247 46.5707 46.1161 46.0956 47.3026 45.2731C48.9044 44.1911 49.9807 42.7743 50.0158 40.7342C50.043 39.1511 50.145 37.5681 50.1205 35.9857C50.0271 29.9793 49.8953 23.9736 49.7796 17.9678C49.7743 17.6052 49.7805 17.2425 49.7805 16.9392ZM3.1113 15.5495C18.6536 14.717 33.9496 14.1749 49.3407 13.8073C49.2524 13.0224 49.2404 12.2796 49.0757 11.5726C48.5659 9.39462 47.6123 7.5302 45.2444 6.88325C43.7419 6.47276 42.2013 6.59137 40.6079 6.6279C40.5723 6.97905 40.5496 7.26598 40.5123 7.55093C40.4816 7.8435 40.4345 8.13416 40.3718 8.42155C40.1473 9.33508 39.6874 9.74995 38.9789 9.70058C38.2651 9.65143 37.8573 9.1717 37.7928 8.23138C37.756 7.69469 37.7862 7.15332 37.7862 6.64076H15.2254C15.2254 7.16439 15.2354 7.56165 15.223 7.95797C15.2226 8.50934 15.1931 9.06022 15.1347 9.60847C15.1143 9.87075 14.9956 10.1156 14.8025 10.2937C14.6094 10.4717 14.3562 10.5698 14.0939 10.5683C13.4757 10.6055 13.1246 10.214 12.9878 9.68134C12.9075 9.24815 12.8728 8.80771 12.8842 8.36726C12.8643 7.87108 12.8644 7.37402 12.8535 6.73925C11.1824 6.88073 9.65364 6.8577 8.1949 7.16811C5.76867 7.68466 3.77366 8.89182 3.32524 11.6038C3.1188 12.8572 3.17842 14.1551 3.1113 15.5495Z" fill="#173A01"/>
<path d="M13.7464 42.1858C13.4223 42.2 12.7997 42.2522 12.1771 42.25C10.8274 42.2469 10.0043 41.6345 9.75326 40.3238C9.44747 38.804 9.51487 37.2327 9.94974 35.7448C10.0308 35.4229 10.1969 35.1287 10.4305 34.8935C10.6641 34.6582 10.9567 34.4903 11.2774 34.4075C13.0406 33.893 14.8815 33.6993 16.7129 33.835C17.6941 33.9032 18.4531 34.4512 18.6779 35.4825C19.0184 37.0412 19.1098 38.6163 18.6865 40.1763C18.3313 41.4848 17.491 42.1316 16.1343 42.1818C15.4392 42.2071 14.7422 42.1858 13.7464 42.1858ZM15.367 36.9123H12.4999L12.6213 38.8262H15.367V36.9123Z" fill="#F38708"/>
<path d="M31.4777 37.2237C31.4777 37.599 31.4828 37.8201 31.4777 38.0411C31.4168 40.3327 30.6816 41.2241 28.4201 41.6191C27.2645 41.8208 26.0934 41.9543 24.9239 42.053C23.6557 42.1604 22.8043 41.5943 22.5557 40.4015C22.2411 38.8864 22.0567 37.3492 22.3875 35.7985C22.6202 34.7087 23.2627 33.9831 24.3472 33.8211C25.7976 33.5944 27.2598 33.4518 28.7267 33.3944C30.3645 33.3424 31.0766 34.0075 31.332 35.6176C31.4219 36.1977 31.4389 36.7897 31.4777 37.2237ZM28.1907 36.5289H25.0283C25.1343 37.3552 25.2292 38.0931 25.3273 38.8574C26.0387 38.7879 26.6202 38.7361 27.2007 38.6732C28.2516 38.5597 28.3651 38.4297 28.3152 37.357C28.3028 37.1074 28.2412 36.8603 28.1898 36.5289H28.1907Z" fill="#F38708"/>
<path d="M39.1864 41.8089C38.4903 41.8406 37.793 41.8364 37.0973 41.7961C35.8362 41.6632 35.1014 40.9955 35.0257 39.7591C34.9358 38.4006 34.9524 37.0374 35.0751 35.6815C35.2076 34.295 35.8346 33.7293 37.2229 33.6199C38.5746 33.5132 39.9373 33.4829 41.2934 33.511C42.7247 33.5409 44.0731 34.4631 43.9671 36.3506C43.9155 37.2692 43.8991 38.1933 43.7812 39.104C43.5556 40.8445 42.7044 41.6083 40.9456 41.741C40.3599 41.7852 39.773 41.8158 39.1866 41.8528L39.1864 41.8089ZM37.8275 36.1883C37.8716 37.1306 37.905 37.8448 37.9379 38.5336H40.5078C40.5741 37.8216 40.6284 37.2125 40.6931 36.5038L37.8275 36.1883Z" fill="#F38708"/>
<path d="M39.0726 29.8567C38.4502 29.8919 37.8274 29.961 37.2054 29.955C35.6709 29.9404 34.8719 29.2137 34.7955 27.6924C34.7361 26.517 34.7361 25.3395 34.7955 24.1643C34.871 22.693 35.3992 22.0631 36.8506 21.911C38.454 21.741 40.0662 21.6708 41.6779 21.701C43.1742 21.7314 43.9714 22.5746 43.9635 24.1052C43.9471 25.3528 43.8193 26.5965 43.5813 27.8211C43.3426 29.0962 42.5772 29.6889 41.2703 29.781C40.5417 29.8326 39.805 29.7903 39.0717 29.7903L39.0726 29.8567ZM37.5271 26.8734H40.6722C40.7572 26.1131 40.8327 25.4383 40.9288 24.5781L37.5271 24.4278V26.8734Z" fill="#F38708"/>
<path d="M21.5059 25.9464C21.5794 25.2157 21.6257 24.4426 21.7423 23.6792C21.8748 22.8157 22.3043 22.1488 23.2216 21.9619C24.8444 21.6314 26.476 21.3508 28.1425 21.5494C29.5978 21.7225 30.3873 22.3436 30.5891 23.7989C30.7238 24.8883 30.7059 25.9913 30.5363 27.0758C30.3663 28.2492 29.5373 28.9542 28.3605 29.1085C26.9404 29.2945 25.5123 29.4424 24.0834 29.5305C22.7021 29.616 21.866 28.9093 21.6273 27.5314C21.5403 27.0268 21.546 26.5057 21.5059 25.9464ZM27.4696 24.4906L24.1754 24.2721C24.2269 25.0937 24.2664 25.7272 24.3119 26.4523L27.4691 26.1341L27.4696 24.4906Z" fill="#F38708"/>
</g>
<defs>
<clipPath id="clip0_1_808">
<rect width="53.2097" height="50.481" fill="white" transform="translate(0.169189 0.224731)"/>
</clipPath>
</defs>
</svg>
