<svg width="62" height="62" viewBox="0 0 62 62" fill="none" xmlns="http://www.w3.org/2000/svg">
<path fill-rule="evenodd" clip-rule="evenodd" d="M55.163 5.90081C51.6712 8.28303 49.9414 9.68616 45.6338 13.6351C41.9461 16.9964 42.0115 16.9639 40.9673 15.8868C38.8135 13.5697 30.9159 11.481 28.6642 12.6886C27.5871 13.2434 27.7179 14.3529 28.86 14.3529C31.9601 14.3855 34.832 15.8215 37.2796 17.8773C39.466 19.7376 39.466 19.6396 36.3659 22.7071C33.0371 25.9705 28.3052 31.3552 25.6617 34.847L23.6384 37.523L21.9415 35.0103C17.9277 29.0055 13.5873 26.0359 10.9113 27.439C9.93218 27.9613 10.0955 28.2876 13.0325 31.388C15.6106 34.0966 18.2867 37.9473 20.1792 41.7001C21.7131 44.7353 25.4987 44.7353 28.0768 40.3624C29.9371 37.1966 34.7341 31.1596 38.6827 27.0476L42.2074 23.3599L43.0557 25.2527C50.627 42.1898 32.156 61.8027 16.6223 53.318C0.762208 44.6374 4.35167 16.8005 21.648 14.3204C25.0419 13.8307 25.107 12.6886 21.7456 12.2643C13.0651 11.0896 1.96973 21.3691 0.794757 31.6164C-1.42442 51.1642 17.8624 63.8913 36.7248 55.3738C48.1794 50.2176 53.5312 31.6815 46.4496 21.8914C45.9276 21.1735 45.5033 20.4882 45.5033 20.3249C45.5033 19.6399 51.3448 14.418 57.5452 9.65361C64.5288 4.26897 60.9065 1.98469 55.163 5.90081Z" fill="#F38708"/>
</svg>
