<svg xmlns="http://www.w3.org/2000/svg" width="175" height="44" fill="#fff" xmlns:v="https://vecta.io/nano"><path opacity=".8" d="M32.51 10.704l-1.141-1.141c-1.141-1.217-2.358-2.434-3.88-3.195-1.75-.913-3.651-.685-5.553-.685H7.559l2.891 3.88h17.268c1.598 0 2.967.304 4.26 1.141.228.076.456.076.532 0z"/><path opacity=".9" d="M35.705 16.941L34.564 15.8c-1.141-1.217-2.358-2.434-3.88-3.195-1.75-.913-3.651-.685-5.553-.685h-12.78l2.891 3.88h15.747c1.598 0 2.967.304 4.26 1.141.152.076.304.076.456 0z"/><path d="M39.28 23.027l-1.141-1.141c-1.141-1.217-2.358-2.434-3.88-3.195-1.75-.913-3.651-.685-5.553-.685H16.991l2.891 3.88h14.606c1.598 0 2.967.304 4.26 1.141.228.076.38.152.532 0z"/><path opacity=".8" d="M7.254 33.296l1.141 1.141c1.141 1.217 2.358 2.434 3.88 3.195 1.75.913 3.651.685 5.553.685h14.377l-2.891-3.88H12.047c-1.598 0-2.967-.304-4.26-1.141-.228-.076-.38-.076-.532 0z"/><path opacity=".9" d="M4.06 27.059L5.201 28.2c1.141 1.217 2.358 2.434 3.88 3.195 1.75.913 3.651.685 5.553.685h12.78l-2.891-3.88H8.776c-1.597 0-2.967-.304-4.26-1.141-.152-.076-.304-.076-.456 0z"/><path d="M.56 20.897l1.141 1.141c1.141 1.217 2.358 2.434 3.88 3.195 1.75.913 3.651.685 5.553.685h11.715l-2.891-3.88H5.353c-1.597 0-2.967-.304-4.26-1.141-.228-.076-.38-.076-.532 0zm47.46-7.69V30.8h3.868v-7.269h7.367v-3.006h-7.367V16.46h8.501v-3.252H48.02zm22.072 9.856H64.4a4.5 4.5 0 0 1 .148-.838c.099-.312.255-.608.468-.887.23-.279.526-.509.887-.69.378-.197.846-.296 1.404-.296.854 0 1.487.23 1.897.69.427.46.723 1.133.887 2.02zM64.4 25.281h9.191c.066-.986-.017-1.93-.246-2.834a6.81 6.81 0 0 0-1.133-2.415 5.43 5.43 0 0 0-1.971-1.675c-.805-.427-1.749-.641-2.834-.641-.969 0-1.856.172-2.661.517-.789.345-1.47.821-2.045 1.429-.575.591-1.019 1.298-1.331 2.119s-.468 1.708-.468 2.661c0 .986.148 1.889.444 2.71a6.3 6.3 0 0 0 1.306 2.119c.559.591 1.24 1.051 2.045 1.38.805.312 1.708.468 2.71.468 1.446 0 2.678-.329 3.696-.986s1.774-1.749 2.267-3.277h-3.08c-.115.394-.427.772-.936 1.133-.509.345-1.117.518-1.823.518-.986 0-1.741-.255-2.267-.764s-.813-1.33-.862-2.464zm10.379-3.302c.049-.821.255-1.503.616-2.045a4.19 4.19 0 0 1 1.38-1.306c.559-.329 1.183-.559 1.873-.69a10.32 10.32 0 0 1 2.119-.222 13.06 13.06 0 0 1 1.947.148 5.72 5.72 0 0 1 1.799.517 3.5 3.5 0 0 1 1.331 1.109c.345.46.517 1.076.517 1.848v6.628a13.26 13.26 0 0 0 .099 1.651c.066.526.181.92.345 1.183h-3.548l-.172-.591-.074-.641a4.56 4.56 0 0 1-1.971 1.207c-.756.23-1.528.345-2.316.345a6.26 6.26 0 0 1-1.7-.222c-.526-.148-.986-.378-1.38-.69a3.33 3.33 0 0 1-.936-1.183c-.213-.476-.32-1.043-.32-1.7 0-.723.123-1.314.37-1.774.263-.476.591-.854.986-1.134a4.38 4.38 0 0 1 1.38-.616c.526-.148 1.051-.263 1.577-.345l1.552-.197c.509-.049.961-.123 1.355-.222s.706-.238.936-.419c.23-.197.337-.476.32-.838 0-.378-.066-.674-.197-.887-.115-.23-.279-.402-.493-.517a1.6 1.6 0 0 0-.715-.246 4.71 4.71 0 0 0-.862-.074c-.69 0-1.232.148-1.626.444s-.624.789-.69 1.478h-3.499zm8.082 2.587c-.148.131-.337.238-.567.32-.214.066-.452.123-.715.173l-.788.123-.838.123a6.92 6.92 0 0 0-.788.197 2.32 2.32 0 0 0-.665.345c-.181.131-.328.304-.444.517s-.172.485-.172.813c0 .312.058.575.172.788a1.42 1.42 0 0 0 .468.517 2.14 2.14 0 0 0 .69.246 4.4 4.4 0 0 0 .813.074c.69 0 1.224-.115 1.602-.345s.657-.501.838-.813c.181-.329.287-.657.32-.986.049-.329.074-.591.074-.788v-1.306zm9.911-6.505v-3.819h-3.499v3.819h-2.119v2.341h2.119v7.515c0 .641.107 1.158.32 1.552s.501.698.862.912c.378.214.805.353 1.281.419a9.44 9.44 0 0 0 1.552.123l1.06-.025c.361-.016.69-.049.986-.099v-2.71c-.164.033-.337.057-.517.074l-.567.025c-.591 0-.986-.099-1.183-.296s-.296-.591-.296-1.183v-6.308h2.563V18.06h-2.562zm3.488-4.854V30.8h3.499v-6.677c0-1.298.214-2.226.641-2.784.427-.575 1.117-.862 2.07-.862.838 0 1.421.263 1.749.788.329.509.493 1.29.493 2.341V30.8h3.499v-7.835c0-.789-.074-1.503-.222-2.144-.131-.657-.369-1.207-.714-1.651-.345-.46-.822-.813-1.429-1.059-.592-.263-1.356-.394-2.292-.394-.657 0-1.331.172-2.02.517-.69.329-1.257.862-1.701 1.602h-.074v-6.628H96.26zm22.441 9.856h-5.692c.017-.246.066-.526.148-.838a2.91 2.91 0 0 1 .468-.887c.23-.279.526-.509.887-.69.378-.197.846-.296 1.405-.296.854 0 1.486.23 1.897.69.427.46.723 1.133.887 2.02zm-5.692 2.218h9.191c.066-.986-.017-1.93-.246-2.834a6.81 6.81 0 0 0-1.134-2.415c-.509-.706-1.166-1.265-1.971-1.675-.805-.427-1.75-.641-2.834-.641-.969 0-1.856.172-2.661.517a6.21 6.21 0 0 0-2.045 1.429c-.575.591-1.018 1.298-1.331 2.119s-.468 1.708-.468 2.661c0 .986.148 1.889.444 2.71a6.3 6.3 0 0 0 1.306 2.119c.558.591 1.24 1.051 2.045 1.38.805.312 1.708.468 2.71.468 1.446 0 2.678-.329 3.696-.986s1.774-1.749 2.267-3.277h-3.08c-.115.394-.427.772-.936 1.133-.509.345-1.117.518-1.824.518-.985 0-1.741-.255-2.266-.764s-.814-1.33-.863-2.464zm10.527-7.22V30.8h3.499v-5.741a7.04 7.04 0 0 1 .172-1.602c.115-.493.304-.92.567-1.281.279-.378.641-.673 1.084-.887s.986-.32 1.626-.32a4.72 4.72 0 0 1 .666.049 4.69 4.69 0 0 1 .591.074V17.84c-.279-.082-.534-.123-.764-.123a4.18 4.18 0 0 0-1.281.197c-.411.131-.797.32-1.158.567-.362.23-.682.517-.961.862a4.09 4.09 0 0 0-.665 1.084h-.05v-2.366h-3.326zm13.076 9.487V16.46h2.759c.953 0 1.75.14 2.39.419.657.263 1.183.649 1.577 1.158s.674 1.125.838 1.848c.181.706.271 1.503.271 2.39 0 .969-.123 1.791-.369 2.464s-.575 1.224-.986 1.651c-.411.411-.879.706-1.405.887a4.96 4.96 0 0 1-1.626.271h-3.449zm-3.869-14.34V30.8h7.589c1.347 0 2.514-.222 3.499-.665 1.002-.46 1.832-1.084 2.489-1.873.673-.788 1.174-1.725 1.503-2.809s.493-2.267.493-3.548c0-1.462-.206-2.735-.616-3.819-.395-1.084-.953-1.988-1.676-2.71-.706-.723-1.552-1.265-2.538-1.626-.969-.361-2.02-.542-3.154-.542h-7.589zm25.729 9.855h-5.691a4.49 4.49 0 0 1 .147-.838 2.89 2.89 0 0 1 .469-.887c.23-.279.525-.509.887-.69.377-.197.846-.296 1.404-.296.854 0 1.487.23 1.897.69.428.46.723 1.133.887 2.02zm-5.691 2.218h9.19c.066-.986-.016-1.93-.246-2.834s-.608-1.708-1.133-2.415a5.44 5.44 0 0 0-1.972-1.675c-.805-.427-1.749-.641-2.833-.641-.969 0-1.856.172-2.661.517-.789.345-1.471.821-2.046 1.429-.574.591-1.018 1.298-1.33 2.119s-.468 1.708-.468 2.661c0 .986.148 1.889.443 2.71.312.821.748 1.528 1.306 2.119s1.24 1.051 2.045 1.38c.805.312 1.709.468 2.711.468 1.445 0 2.677-.329 3.696-.986s1.774-1.749 2.267-3.277h-3.08c-.115.394-.427.772-.937 1.133-.509.345-1.117.518-1.823.518-.986 0-1.741-.255-2.267-.764s-.813-1.33-.862-2.464zm17.573 5.519l4.312-12.739h-3.474l-2.686 8.698h-.049l-2.686-8.698H162.1l4.361 12.739h3.893z"/></svg>