<svg width="161" height="44" viewBox="0 0 161 44" fill="none" xmlns="http://www.w3.org/2000/svg">
<g clip-path="url(#clip0_1_848)">
<path d="M24.1571 4.50697L20.4428 3.51172L17.3127 15.1934L14.4868 4.6471L10.7724 5.64236L13.8257 17.0369L6.22082 9.43208L3.50174 12.1512L11.8433 20.4928L1.45521 17.7093L0.459961 21.4236L11.8102 24.4649C11.6803 23.9044 11.6115 23.3204 11.6115 22.7203C11.6115 18.4728 15.0548 15.0296 19.3023 15.0296C23.5498 15.0296 26.993 18.4728 26.993 22.7203C26.993 23.3165 26.9251 23.8969 26.7968 24.4541L37.1121 27.2181L38.1073 23.5038L26.7119 20.4504L37.1006 17.6667L36.1053 13.9524L24.7104 17.0056L32.3152 9.40086L29.5961 6.68178L21.3703 14.9076L24.1571 4.50697Z" fill="white"/>
<path d="M26.7859 24.4974C26.4675 25.8437 25.7951 27.0532 24.8727 28.0222L32.3456 35.4953L35.0647 32.7762L26.7859 24.4974Z" fill="white"/>
<path d="M24.7972 28.1003C23.8636 29.0539 22.6838 29.7655 21.3607 30.1322L24.08 40.2806L27.7942 39.2853L24.7972 28.1003Z" fill="white"/>
<path d="M21.2219 30.1693C20.6081 30.3271 19.9647 30.411 19.3016 30.411C18.5912 30.411 17.9034 30.3147 17.2503 30.1344L14.5286 40.2921L18.2429 41.2873L21.2219 30.1693Z" fill="white"/>
<path d="M17.119 30.0969C15.8161 29.712 14.6572 28.9913 13.7427 28.035L6.25133 35.5264L8.97041 38.2455L17.119 30.0969Z" fill="white"/>
<path d="M13.681 27.9688C12.7821 27.0065 12.1273 25.8132 11.8157 24.4876L1.46672 27.2606L2.46196 30.9749L13.681 27.9688Z" fill="white"/>
</g>
<path d="M60.4578 12.24V25.6248L51.8778 12.24H48.4458V30.72H51.8778V17.4408L60.4578 30.72H63.8898V12.24H60.4578Z" fill="white"/>
<path d="M65.4363 15.6984H68.9739V12.24H65.4363V15.6984ZM65.4891 30.72V17.52H68.9211V30.72H65.4891Z" fill="white"/>
<path d="M83.6875 24.12C83.6875 19.5528 80.4403 17.388 77.0083 17.3616C73.5499 17.3352 70.3555 19.5528 70.3555 24.12C70.3555 28.6872 73.5499 30.9048 77.0083 30.8784C80.1499 30.852 82.3147 29.4 83.3179 26.9976L80.6515 25.8888C79.8331 27.5256 78.5395 28.1064 77.0083 28.1328C75.6883 28.1592 74.1835 27.5256 73.8667 25.176H83.6083C83.6611 24.8328 83.6875 24.4896 83.6875 24.12ZM77.0083 20.0808C78.3283 20.1072 79.6747 20.82 80.0971 22.7208H73.9195C74.3683 20.7936 75.7147 20.0544 77.0083 20.0808Z" fill="white"/>
<path d="M91.6191 19.9752V17.3616H89.4543V13.824L86.0223 14.88V17.3616H83.8575V19.9752H86.0223V26.8128C86.0223 29.4 86.2335 30.72 90.2463 30.72H91.1703V27.7104H90.2463C89.6127 27.7104 89.4543 27.6048 89.4543 26.8128V19.9752H91.6191Z" fill="white"/>
<path d="M96.7188 27.8424L104.005 20.3976V17.52H93.0756V20.3976H100.151L92.8644 27.8424V30.72H104.084V27.8424H96.7188Z" fill="white"/>
<path d="M105.315 26.9976L108.773 26.4696C109.011 27.7896 110.569 28.2912 111.519 28.2912C112.496 28.2912 114.185 28.08 114.185 26.496C114.185 23.4072 105.711 27.2616 105.711 21.348C105.711 17.5464 110.12 17.3352 111.519 17.3352C112.839 17.3352 116.667 17.5464 117.459 20.6088L114.185 21.2952C113.895 19.896 112.417 19.632 111.625 19.632C110.833 19.632 109.143 19.8168 109.143 21.348C109.143 24.4104 117.617 20.5032 117.617 26.496C117.617 30.5352 112.971 30.8784 111.519 30.8784C110.199 30.8784 106.001 30.5352 105.315 26.9976Z" fill="white"/>
<path d="M122.076 24.12C122.076 27.3408 123.792 28.3176 125.587 28.2912C127.197 28.2648 128.306 27.6048 128.966 25.7568L131.791 27.1296C130.761 29.8224 128.253 30.852 125.587 30.8784C122.129 30.9048 118.644 28.6872 118.644 24.12C118.644 19.5528 122.129 17.3352 125.587 17.3616C128.253 17.388 130.761 18.4176 131.791 21.1104L128.966 22.4832C128.306 20.6352 127.197 19.9752 125.587 19.9488C123.792 19.9224 122.076 20.8992 122.076 24.12Z" fill="white"/>
<path d="M141.004 17.3088C139.236 17.3088 137.625 18.2328 136.596 20.2128V12.24H133.164V30.72H136.596V26.0472C136.596 20.0016 139.104 19.5 140.028 19.5C141.506 19.5 141.717 21.0312 141.717 23.2752V30.72H145.149V23.2752C145.149 20.4768 144.7 17.3088 141.004 17.3088Z" fill="white"/>
<path d="M159.639 24.12C159.639 19.5528 156.392 17.388 152.96 17.3616C149.502 17.3352 146.307 19.5528 146.307 24.12C146.307 28.6872 149.502 30.9048 152.96 30.8784C156.102 30.852 158.266 29.4 159.27 26.9976L156.603 25.8888C155.785 27.5256 154.491 28.1064 152.96 28.1328C151.64 28.1592 150.135 27.5256 149.818 25.176H159.56C159.613 24.8328 159.639 24.4896 159.639 24.12ZM152.96 20.0808C154.28 20.1072 155.626 20.82 156.049 22.7208H149.871C150.32 20.7936 151.666 20.0544 152.96 20.0808Z" fill="white"/>
<defs>
<clipPath id="clip0_1_848">
<rect width="38.72" height="38.72" fill="white" transform="translate(0.160156 2.63989)"/>
</clipPath>
</defs>
</svg>
