<svg width="175" height="44" viewBox="0 0 175 44" fill="none" xmlns="http://www.w3.org/2000/svg">
<path d="M27.5773 2.63989H12.7424L0.799805 14.5824V29.4173L12.7424 41.3599H27.5773L39.5198 29.4173V14.5824L27.5773 2.63989ZM14.795 29.6039L7.1443 21.9532L14.795 14.3025C17.6873 11.4102 22.4457 11.4102 25.338 14.3025L32.9887 21.9532L25.338 29.6039C22.4457 32.4963 17.7806 32.4963 14.795 29.6039Z" fill="white"/>
<path d="M56.5391 31.011C58.9151 31.011 60.8687 29.7966 61.4759 27.975V30.7999H64.9871V23.6718C64.9871 22.0614 63.7199 20.6886 62.0039 20.6886H56.9879V23.6718H60.5519C61.0007 23.6718 61.2911 23.9622 61.2911 24.411C61.2911 26.127 59.0207 27.7902 56.7239 27.7902C53.6615 27.7902 51.2327 25.3878 51.2327 21.5598C51.2327 17.7318 53.6615 15.5142 56.8031 15.5142C59.1791 15.5142 60.8159 16.8078 61.1063 18.7878H65.0399C64.8023 14.8278 61.4759 12.1086 56.8295 12.1086C51.9455 12.1086 47.4575 15.2502 47.4575 21.5598C47.4575 27.8694 51.8135 31.011 56.5391 31.011Z" fill="white"/>
<path d="M66.4944 30.7999H70.164V11.7126H66.4944V30.7999Z" fill="white"/>
<path d="M78.0797 31.011C82.1717 31.011 85.1021 28.107 85.1021 24.147C85.1021 20.187 82.1717 17.283 78.0797 17.283C73.9877 17.283 71.0573 20.187 71.0573 24.147C71.0573 28.107 73.9877 31.011 78.0797 31.011ZM78.0797 27.8431C76.0997 27.8431 74.7533 26.3382 74.7533 24.147C74.7533 21.9294 76.0997 20.4246 78.0797 20.4246C80.0597 20.4246 81.4061 21.9294 81.4061 24.147C81.4061 26.3382 80.0597 27.8431 78.0797 27.8431Z" fill="white"/>
<path d="M93.3133 31.011C97.2469 31.011 99.5965 28.2918 99.5965 24.147C99.5965 20.0022 97.2469 17.283 93.3661 17.283C91.7029 17.283 90.4093 17.9166 89.6701 18.8934V11.7126H86.0005V30.7999H89.6701V29.3478C90.4093 30.3774 91.7821 31.011 93.3133 31.011ZM92.7325 27.8431C90.7525 27.8431 89.4589 26.3646 89.4589 24.147C89.4589 21.903 90.7525 20.4246 92.7325 20.4246C94.6597 20.4246 95.9797 21.903 95.9797 24.147C95.9797 26.3646 94.6597 27.8431 92.7325 27.8431Z" fill="white"/>
<path d="M105.739 17.283C102.096 17.283 99.9312 19.4214 99.7728 22.0878H103.046C103.099 20.979 103.918 19.9758 105.528 19.9758C107.033 19.9758 107.904 20.7414 107.904 21.8502C107.904 22.4046 107.561 22.827 106.901 22.827H104.657C101.753 22.827 99.7992 24.411 99.7992 27.0246C99.7992 29.295 101.568 31.011 104.155 31.011C105.977 31.011 107.455 30.1926 107.904 28.9518V30.7999H111.547V22.2462C111.547 19.2366 109.092 17.283 105.739 17.283ZM105.079 28.3446C104.05 28.3446 103.31 27.7374 103.31 26.8662C103.31 25.8366 104.102 25.1502 105.211 25.1502H107.904V25.335C107.904 27.0246 106.874 28.3446 105.079 28.3446Z" fill="white"/>
<path d="M112.957 30.7999H116.627V11.7126H112.957V30.7999Z" fill="white"/>
<path d="M118.576 30.7999H126.127C130.034 30.7999 132.727 28.7934 132.727 25.2822C132.727 22.8534 131.301 21.375 129.611 20.715C130.694 20.1342 131.776 18.8142 131.776 17.0718C131.776 13.983 129.268 12.3198 125.915 12.3198H118.576V30.7999ZM122.483 19.3686V15.4614H125.546C127.315 15.4614 128.107 16.1742 128.107 17.415C128.107 18.6558 127.315 19.3686 125.625 19.3686H122.483ZM122.483 27.3678V22.7214H125.783C127.975 22.7214 128.951 23.5662 128.951 25.071C128.951 26.5758 127.975 27.3678 125.783 27.3678H122.483Z" fill="white"/>
<path d="M139.11 17.283C135.467 17.283 133.302 19.4214 133.144 22.0878H136.418C136.47 20.979 137.289 19.9758 138.899 19.9758C140.404 19.9758 141.275 20.7414 141.275 21.8502C141.275 22.4046 140.932 22.827 140.272 22.827H138.028C135.124 22.827 133.17 24.411 133.17 27.0246C133.17 29.295 134.939 31.011 137.526 31.011C139.348 31.011 140.826 30.1926 141.275 28.9518V30.7999H144.918V22.2462C144.918 19.2366 142.463 17.283 139.11 17.283ZM138.45 28.3446C137.421 28.3446 136.682 27.7374 136.682 26.8662C136.682 25.8366 137.474 25.1502 138.582 25.1502H141.275V25.335C141.275 27.0246 140.246 28.3446 138.45 28.3446Z" fill="white"/>
<path d="M146.117 30.7999H149.813V23.5134C149.813 21.7974 150.949 20.5566 152.559 20.5566C154.09 20.5566 155.12 21.7182 155.12 23.3286V30.7999H158.816V22.5102C158.816 19.4478 156.862 17.283 153.853 17.283C152.031 17.283 150.553 18.0486 149.813 19.3422V17.4942H146.117V30.7999Z" fill="white"/>
<path d="M169.35 30.7999H173.785L168.056 22.7214L173.362 17.4942H168.716L164.096 22.035V11.7126H160.4V30.7999H164.096V26.6286L165.574 25.1766L169.35 30.7999Z" fill="white"/>
</svg>
