<svg width="148" height="44" viewBox="0 0 148 44" fill="none" xmlns="http://www.w3.org/2000/svg">
<path fill-rule="evenodd" clip-rule="evenodd" d="M17.9937 3.91426C17.5493 3.82285 17.0909 3.82285 16.6465 3.91426C16.1327 4.01992 15.6735 4.27711 15.3085 4.48158L15.209 4.53716L2.83664 11.4107C2.80244 11.4297 2.76719 11.4491 2.73108 11.469C2.34464 11.6818 1.85875 11.9495 1.48561 12.3544C1.16301 12.7044 0.918874 13.1194 0.769529 13.5714C0.596789 14.0942 0.59881 14.6489 0.600417 15.0901C0.600567 15.1313 0.600714 15.1716 0.600714 15.2107V28.782C0.600714 28.8211 0.600567 28.8614 0.600417 28.9026C0.59881 29.3438 0.596789 29.8985 0.769529 30.4213C0.918875 30.8733 1.16301 31.2882 1.48561 31.6383C1.85875 32.0432 2.34464 32.3108 2.73108 32.5237C2.76719 32.5436 2.80244 32.563 2.83665 32.582L15.209 39.4555L15.3085 39.5111C15.6736 39.7156 16.1327 39.9728 16.6465 40.0784C17.0909 40.1698 17.5493 40.1698 17.9937 40.0784C18.5075 39.9728 18.9667 39.7156 19.3317 39.5111L19.4312 39.4555L31.8036 32.582C31.8187 32.5736 31.834 32.5651 31.8495 32.5565C31.8691 32.5457 31.889 32.5348 31.9091 32.5237C32.2955 32.3108 32.7814 32.0432 33.1546 31.6383C33.4772 31.2882 33.7213 30.8733 33.8707 30.4213C34.0434 29.8985 34.0414 29.3438 34.0398 28.9026C34.0396 28.8614 34.0395 28.8211 34.0395 28.782V15.2107C34.0395 15.1716 34.0396 15.1313 34.0398 15.0901C34.0414 14.6489 34.0434 14.0942 33.8707 13.5714C33.7213 13.1194 33.4772 12.7044 33.1546 12.3544C32.7814 11.9495 32.2956 11.6818 31.9091 11.469L31.9078 11.4682C31.8721 11.4486 31.8373 11.4294 31.8036 11.4107L19.4312 4.53716L19.3317 4.48157C18.9666 4.2771 18.5075 4.01992 17.9937 3.91426ZM16.8329 7.46024C17.0863 7.31948 17.2156 7.24835 17.3121 7.20182L17.3201 7.19799L17.3281 7.20182C17.4246 7.24835 17.5539 7.31947 17.8073 7.46023L28.9247 13.6366L17.32 20.0837L5.7154 13.6366L16.8329 7.46024ZM3.94459 16.4781L15.6481 22.9801L15.6482 35.8742L4.46058 29.6589C4.19314 29.5103 4.05661 29.4337 3.96081 29.3727L3.95272 29.3675L3.95212 29.3579C3.94529 29.2445 3.94459 29.0879 3.94459 28.782V16.4781Z" fill="white"/>
<path d="M49.2563 27.5837H54.5786V30.72H45.1934V14.0405H49.2563V27.5837Z" fill="white"/>
<path d="M58.3222 16.0838C57.6094 16.0838 57.0234 15.8779 56.564 15.4661C56.1205 15.0384 55.8987 14.5157 55.8987 13.8979C55.8987 13.2643 56.1205 12.7416 56.564 12.3298C57.0234 11.9021 57.6094 11.6882 58.3222 11.6882C59.0192 11.6882 59.5894 11.9021 60.033 12.3298C60.4923 12.7416 60.722 13.2643 60.722 13.8979C60.722 14.5157 60.4923 15.0384 60.033 15.4661C59.5894 15.8779 59.0192 16.0838 58.3222 16.0838ZM60.3418 17.4619V30.72H56.2789V17.4619H60.3418Z" fill="white"/>
<path d="M68.0857 17.2718C69.0203 17.2718 69.8361 17.4619 70.533 17.8421C71.2458 18.2222 71.7923 18.7212 72.1725 19.339V17.4619H76.2354V30.6962C76.2354 31.9159 75.9899 33.0168 75.4989 33.9989C75.0237 34.9968 74.2871 35.7888 73.2892 36.3749C72.3071 36.961 71.0795 37.254 69.6064 37.254C67.6422 37.254 66.0503 36.7867 64.8306 35.8522C63.6109 34.9334 62.914 33.6821 62.7397 32.0981H66.7552C66.8819 32.605 67.1829 33.001 67.6581 33.2861C68.1333 33.587 68.7193 33.7375 69.4163 33.7375C70.2558 33.7375 70.9211 33.492 71.4121 33.001C71.919 32.5258 72.1725 31.7575 72.1725 30.6962V28.8192C71.7765 29.437 71.23 29.9438 70.533 30.3398C69.8361 30.72 69.0203 30.9101 68.0857 30.9101C66.9928 30.9101 66.0028 30.6329 65.1157 30.0785C64.2287 29.5082 63.5238 28.7083 63.0011 27.6787C62.4942 26.6333 62.2408 25.4294 62.2408 24.0672C62.2408 22.705 62.4942 21.509 63.0011 20.4794C63.5238 19.4498 64.2287 18.6578 65.1157 18.1034C66.0028 17.549 66.9928 17.2718 68.0857 17.2718ZM72.1725 24.091C72.1725 23.0772 71.8874 22.2773 71.3171 21.6912C70.7627 21.1051 70.0816 20.8121 69.2737 20.8121C68.4659 20.8121 67.7769 21.1051 67.2066 21.6912C66.6522 22.2614 66.375 23.0534 66.375 24.0672C66.375 25.081 66.6522 25.8888 67.2066 26.4907C67.7769 27.0768 68.4659 27.3698 69.2737 27.3698C70.0816 27.3698 70.7627 27.0768 71.3171 26.4907C71.8874 25.9046 72.1725 25.1047 72.1725 24.091Z" fill="white"/>
<path d="M87.0869 17.3194C88.6075 17.3194 89.8272 17.8262 90.7459 18.84C91.6646 19.8379 92.124 21.216 92.124 22.9742V30.72H88.0848V23.5207C88.0848 22.6337 87.8551 21.9446 87.3958 21.4536C86.9364 20.9626 86.3186 20.717 85.5425 20.717C84.7663 20.717 84.1486 20.9626 83.6892 21.4536C83.2298 21.9446 83.0002 22.6337 83.0002 23.5207V30.72H78.9372V13.1376H83.0002V19.2439C83.412 18.6578 83.9743 18.1906 84.6871 17.8421C85.3999 17.4936 86.1998 17.3194 87.0869 17.3194Z" fill="white"/>
<path d="M102.099 27.2748V30.72H100.032C98.5589 30.72 97.4105 30.3636 96.5868 29.6508C95.7631 28.9222 95.3513 27.7421 95.3513 26.1106V20.8358H93.7356V17.4619H95.3513V14.2306H99.4142V17.4619H102.075V20.8358H99.4142V26.1581C99.4142 26.5541 99.5093 26.8392 99.6994 27.0134C99.8894 27.1877 100.206 27.2748 100.65 27.2748H102.099Z" fill="white"/>
<path d="M108.188 19.339C108.568 18.7212 109.114 18.2222 109.827 17.8421C110.54 17.4619 111.356 17.2718 112.274 17.2718C113.367 17.2718 114.357 17.549 115.244 18.1034C116.131 18.6578 116.828 19.4498 117.335 20.4794C117.858 21.509 118.119 22.705 118.119 24.0672C118.119 25.4294 117.858 26.6333 117.335 27.6787C116.828 28.7083 116.131 29.5082 115.244 30.0785C114.357 30.6329 113.367 30.9101 112.274 30.9101C111.34 30.9101 110.524 30.7279 109.827 30.3636C109.13 29.9834 108.584 29.4845 108.188 28.8667V30.72H104.125V13.1376H108.188V19.339ZM113.985 24.0672C113.985 23.0534 113.7 22.2614 113.13 21.6912C112.575 21.1051 111.886 20.8121 111.063 20.8121C110.255 20.8121 109.566 21.1051 108.995 21.6912C108.441 22.2773 108.164 23.0772 108.164 24.091C108.164 25.1047 108.441 25.9046 108.995 26.4907C109.566 27.0768 110.255 27.3698 111.063 27.3698C111.87 27.3698 112.559 27.0768 113.13 26.4907C113.7 25.8888 113.985 25.081 113.985 24.0672Z" fill="white"/>
<path d="M126.048 30.9101C124.749 30.9101 123.577 30.6329 122.532 30.0785C121.502 29.5241 120.686 28.7321 120.085 27.7025C119.498 26.6729 119.205 25.469 119.205 24.091C119.205 22.7287 119.506 21.5328 120.108 20.5032C120.71 19.4578 121.534 18.6578 122.579 18.1034C123.625 17.549 124.797 17.2718 126.096 17.2718C127.395 17.2718 128.567 17.549 129.612 18.1034C130.658 18.6578 131.481 19.4578 132.083 20.5032C132.685 21.5328 132.986 22.7287 132.986 24.091C132.986 25.4532 132.677 26.657 132.06 27.7025C131.458 28.7321 130.626 29.5241 129.565 30.0785C128.519 30.6329 127.347 30.9101 126.048 30.9101ZM126.048 27.3936C126.824 27.3936 127.482 27.1085 128.02 26.5382C128.575 25.968 128.852 25.1522 128.852 24.091C128.852 23.0297 128.583 22.2139 128.044 21.6437C127.521 21.0734 126.872 20.7883 126.096 20.7883C125.304 20.7883 124.646 21.0734 124.124 21.6437C123.601 22.1981 123.34 23.0138 123.34 24.091C123.34 25.1522 123.593 25.968 124.1 26.5382C124.623 27.1085 125.272 27.3936 126.048 27.3936Z" fill="white"/>
<path d="M142.745 30.72L140.203 27.0372L138.064 30.72H133.669L138.04 23.9484L133.55 17.4619H138.112L140.654 21.121L142.792 17.4619H147.188L142.745 24.1385L147.307 30.72H142.745Z" fill="white"/>
</svg>
