<svg width="150" height="44" viewBox="0 0 150 44" fill="none" xmlns="http://www.w3.org/2000/svg">
<path fill-rule="evenodd" clip-rule="evenodd" d="M19.36 41.3599C30.0522 41.3599 38.72 32.6921 38.72 21.9999C38.72 11.3077 30.0522 2.63989 19.36 2.63989C8.66775 2.63989 0 11.3077 0 21.9999C0 32.6921 8.66775 41.3599 19.36 41.3599ZM25.3996 11.6586C25.6936 10.6143 24.6802 9.99682 23.7547 10.6562L10.8349 19.8602C9.83121 20.5753 9.9891 21.9999 11.0721 21.9999H14.4742V21.9735H21.1048L15.7021 23.8798L13.3204 32.3412C13.0264 33.3855 14.0397 34.003 14.9653 33.3436L27.8851 24.1396C28.8888 23.4246 28.7308 21.9999 27.6479 21.9999H22.4887L25.3996 11.6586Z" fill="white"/>
<path d="M48.7344 30.72V27.6576H51.1632V15.3024H48.7344V12.24H58.2384C59.3648 12.24 60.3416 12.4336 61.1688 12.8208C62.0136 13.1904 62.6648 13.7272 63.1224 14.4312C63.5976 15.1176 63.8352 15.9448 63.8352 16.9128V17.1768C63.8352 18.0216 63.6768 18.7168 63.36 19.2624C63.0432 19.7904 62.6648 20.204 62.2248 20.5032C61.8024 20.7848 61.3976 20.9872 61.0104 21.1104V21.5856C61.3976 21.6912 61.82 21.8936 62.2776 22.1928C62.7352 22.4744 63.1224 22.888 63.4392 23.4336C63.7736 23.9792 63.9408 24.692 63.9408 25.572V25.836C63.9408 26.8568 63.7032 27.7368 63.228 28.476C62.7528 29.1976 62.0928 29.752 61.248 30.1392C60.4208 30.5264 59.4528 30.72 58.344 30.72H48.7344ZM54.648 27.552H57.9216C58.6784 27.552 59.2856 27.3672 59.7432 26.9976C60.2184 26.628 60.456 26.1 60.456 25.4136V25.1496C60.456 24.4632 60.2272 23.9352 59.7696 23.5656C59.312 23.196 58.696 23.0112 57.9216 23.0112H54.648V27.552ZM54.648 19.8432H57.8688C58.5904 19.8432 59.18 19.6584 59.6376 19.2888C60.1128 18.9192 60.3504 18.4088 60.3504 17.7576V17.4936C60.3504 16.8248 60.1216 16.3144 59.664 15.9624C59.2064 15.5928 58.608 15.408 57.8688 15.408H54.648V19.8432Z" fill="white"/>
<path d="M71.8096 31.0896C70.5072 31.0896 69.3368 30.8256 68.2984 30.2976C67.26 29.7696 66.4416 29.004 65.8432 28.0008C65.2448 26.9976 64.9456 25.792 64.9456 24.384V23.9616C64.9456 22.5536 65.2448 21.348 65.8432 20.3448C66.4416 19.3416 67.26 18.576 68.2984 18.048C69.3368 17.52 70.5072 17.256 71.8096 17.256C73.112 17.256 74.2824 17.52 75.3208 18.048C76.3592 18.576 77.1776 19.3416 77.776 20.3448C78.3744 21.348 78.6736 22.5536 78.6736 23.9616V24.384C78.6736 25.792 78.3744 26.9976 77.776 28.0008C77.1776 29.004 76.3592 29.7696 75.3208 30.2976C74.2824 30.8256 73.112 31.0896 71.8096 31.0896ZM71.8096 28.1328C72.8304 28.1328 73.6752 27.8072 74.344 27.156C75.0128 26.4872 75.3472 25.5368 75.3472 24.3048V24.0408C75.3472 22.8088 75.0128 21.8672 74.344 21.216C73.6928 20.5472 72.848 20.2128 71.8096 20.2128C70.7888 20.2128 69.944 20.5472 69.2752 21.216C68.6064 21.8672 68.272 22.8088 68.272 24.0408V24.3048C68.272 25.5368 68.6064 26.4872 69.2752 27.156C69.944 27.8072 70.7888 28.1328 71.8096 28.1328Z" fill="white"/>
<path d="M80.4241 30.72V12.24H83.7505V30.72H80.4241Z" fill="white"/>
<path d="M91.1326 30.72C90.2702 30.72 89.5662 30.456 89.0206 29.928C88.4926 29.3824 88.2286 28.6608 88.2286 27.7632V20.3712H84.955V17.6256H88.2286V13.56H91.555V17.6256H95.1454V20.3712H91.555V27.1824C91.555 27.7104 91.8014 27.9744 92.2942 27.9744H94.8286V30.72H91.1326Z" fill="white"/>
<path d="M102.275 31.0896C100.568 31.0896 99.1684 30.72 98.0772 29.9808C96.986 29.2416 96.326 28.1856 96.0972 26.8128L99.1596 26.0208C99.2828 26.6368 99.4852 27.1208 99.7668 27.4728C100.066 27.8248 100.427 28.08 100.849 28.2384C101.289 28.3792 101.764 28.4496 102.275 28.4496C103.049 28.4496 103.621 28.3176 103.991 28.0536C104.36 27.772 104.545 27.4288 104.545 27.024C104.545 26.6192 104.369 26.3112 104.017 26.1C103.665 25.8712 103.102 25.6864 102.328 25.5456L101.588 25.4136C100.673 25.2376 99.8372 25 99.0804 24.7008C98.3236 24.384 97.7164 23.9528 97.2588 23.4072C96.8012 22.8616 96.5724 22.1576 96.5724 21.2952C96.5724 19.9928 97.0476 18.9984 97.998 18.312C98.9484 17.608 100.198 17.256 101.747 17.256C103.208 17.256 104.422 17.5816 105.39 18.2328C106.358 18.884 106.992 19.7376 107.291 20.7936L104.202 21.744C104.061 21.0752 103.771 20.6 103.331 20.3184C102.908 20.0368 102.38 19.896 101.747 19.896C101.113 19.896 100.629 20.0104 100.295 20.2392C99.9604 20.4504 99.7932 20.7496 99.7932 21.1368C99.7932 21.5592 99.9692 21.876 100.321 22.0872C100.673 22.2808 101.148 22.4304 101.747 22.536L102.486 22.668C103.472 22.844 104.36 23.0816 105.152 23.3808C105.962 23.6624 106.596 24.076 107.053 24.6216C107.528 25.1496 107.766 25.8712 107.766 26.7864C107.766 28.1592 107.264 29.224 106.261 29.9808C105.276 30.72 103.947 31.0896 102.275 31.0896Z" fill="white"/>
<path d="M109.361 30.72V12.24H112.687V19.236H113.163C113.303 18.9544 113.523 18.6728 113.823 18.3912C114.122 18.1096 114.518 17.8808 115.011 17.7048C115.521 17.5112 116.163 17.4144 116.938 17.4144C117.959 17.4144 118.847 17.652 119.604 18.1272C120.379 18.5848 120.977 19.2272 121.399 20.0544C121.822 20.864 122.033 21.8144 122.033 22.9056V30.72H118.707V23.1696C118.707 22.184 118.46 21.4448 117.967 20.952C117.492 20.4592 116.806 20.2128 115.908 20.2128C114.887 20.2128 114.095 20.556 113.532 21.2424C112.969 21.9112 112.687 22.8528 112.687 24.0672V30.72H109.361Z" fill="white"/>
<path d="M124.309 30.72V17.6256H127.635V30.72H124.309ZM125.972 16.0944C125.374 16.0944 124.863 15.9008 124.441 15.5136C124.036 15.1264 123.834 14.616 123.834 13.9824C123.834 13.3488 124.036 12.8384 124.441 12.4512C124.863 12.064 125.374 11.8704 125.972 11.8704C126.588 11.8704 127.099 12.064 127.503 12.4512C127.908 12.8384 128.111 13.3488 128.111 13.9824C128.111 14.616 127.908 15.1264 127.503 15.5136C127.099 15.9008 126.588 16.0944 125.972 16.0944Z" fill="white"/>
<path d="M132.166 30.72V20.3712H128.84V17.6256H132.166V15.1968C132.166 14.2992 132.43 13.5864 132.958 13.0584C133.504 12.5128 134.208 12.24 135.07 12.24H138.502V14.9856H136.232C135.739 14.9856 135.493 15.2496 135.493 15.7776V17.6256H138.925V20.3712H135.493V30.72H132.166Z" fill="white"/>
<path d="M144.938 30.72C144.076 30.72 143.372 30.456 142.826 29.928C142.298 29.3824 142.034 28.6608 142.034 27.7632V20.3712H138.76V17.6256H142.034V13.56H145.36V17.6256H148.951V20.3712H145.36V27.1824C145.36 27.7104 145.607 27.9744 146.1 27.9744H148.634V30.72H144.938Z" fill="white"/>
</svg>
