<svg width="41" height="49" viewBox="0 0 41 49" fill="none" xmlns="http://www.w3.org/2000/svg">
<g clip-path="url(#clip0_1_829)">
<path d="M40.3796 25.3296C40.3796 29.6541 40.3925 33.9786 40.3706 38.303C40.3771 39.4113 40.3093 40.5189 40.1676 41.6181C39.8741 43.7065 38.7829 45.3316 37.0238 46.5045C35.7379 47.3855 34.2489 47.928 32.6956 48.0807C26.8201 48.6658 20.9025 48.702 15.0204 48.1888C12.6919 47.9862 10.3391 47.979 8.07294 47.3353C6.89218 47.0254 5.73912 46.6191 4.6255 46.1204C2.48543 45.1084 1.19235 43.3862 0.689707 41.0604C0.383963 39.7654 0.221293 38.4411 0.20459 37.1109C0.241032 29.6816 0.266432 22.2519 0.280781 14.8221C0.305166 12.6041 0.476655 10.3903 0.794099 8.19479C0.920298 7.20591 1.17644 6.2377 1.55596 5.31528C2.59287 2.87158 4.43047 1.39391 7.15451 1.23573C10.1549 1.06123 13.158 0.904449 16.1622 0.837496C18.9443 0.774715 21.7307 0.796108 24.5132 0.862871C26.6257 0.913703 28.7353 1.09047 30.8456 1.21869C31.4037 1.25576 31.9387 1.45475 32.3844 1.79121C35.074 3.76961 37.5317 6.04314 39.7109 8.56874C40.3337 9.2823 40.5063 10.0911 40.4918 11.0259C40.4143 15.7931 40.3844 20.5611 40.3377 25.3289L40.3796 25.3296ZM21.8979 46.2583C24.6846 46.1572 27.7957 46.0497 30.907 45.9272C31.5736 45.901 32.2402 45.846 32.8998 45.754C33.898 45.6123 34.8292 45.1713 35.5696 44.4898C36.688 43.4897 37.4361 42.2766 37.5695 40.7767C37.6967 39.3453 37.7354 37.9047 37.7765 36.4672C37.8527 33.8118 37.907 31.1565 37.9603 28.5011C37.9847 27.284 38.0961 26.0555 37.9748 24.8515C37.6735 21.8653 37.7881 18.8769 37.778 15.8897C37.7742 14.783 37.759 13.6761 37.7251 12.5705C37.7085 12.0248 37.2188 11.6004 36.6013 11.5796C35.1568 11.5305 33.7108 11.5186 32.2675 11.4483C31.6033 11.4079 30.943 11.3197 30.2916 11.1843C29.7087 11.0705 29.0989 10.3516 29.033 9.76548C28.9779 9.3268 28.9461 8.88557 28.9377 8.44354C28.9297 7.11586 28.9465 5.78817 28.945 4.46048C28.9271 4.24212 28.8381 4.03549 28.6915 3.8722C28.5446 3.70894 28.3484 3.59804 28.1324 3.55621C27.8006 3.52625 27.4685 3.48818 27.1359 3.48249C23.0219 3.41174 18.9078 3.33089 14.7937 3.28745C13.127 3.27 11.459 3.33787 9.7917 3.36821C8.56514 3.39831 7.35382 3.64612 6.21475 4.10022C4.62493 4.71912 3.72231 5.904 3.57394 7.60799C3.54038 8.16046 3.54583 8.71462 3.59032 9.26631C3.79202 12.9188 3.7187 16.5709 3.64632 20.2254C3.53451 25.8715 3.47128 31.5189 3.42557 37.166C3.40502 38.4942 3.48078 39.8225 3.65222 41.1399C3.73786 41.8608 4.00737 42.548 4.43511 43.1358C4.86286 43.7238 5.4346 44.1926 6.0959 44.4982C6.79508 44.8339 7.53074 45.0884 8.28836 45.2569C9.91044 45.6472 11.5672 45.8777 13.2346 45.945C16.0144 46.0237 18.7922 46.1432 21.8979 46.2583ZM33.4474 9.24315C33.9807 9.21527 34.4188 9.22136 34.8427 9.15535C34.9997 9.13089 35.1496 8.95267 35.2618 8.81232C35.2783 8.76287 35.2827 8.71026 35.2747 8.65878C35.2665 8.60729 35.2463 8.55831 35.2157 8.51615C34.4296 7.48787 33.4678 6.60549 32.3743 5.90948C32.2888 5.89645 32.2014 5.90178 32.1181 5.92486C32.0347 5.94795 31.9572 5.98827 31.8907 6.04341C31.8507 6.89692 31.8305 7.75339 31.8631 8.60691C31.888 8.7099 31.9378 8.80522 32.0079 8.88492C32.0779 8.96464 32.1663 9.02636 32.2656 9.0646C32.6547 9.15232 33.0497 9.2118 33.4474 9.24279V9.24315Z" fill="#173A01"/>
<path d="M20.1667 17.2942C23.3928 17.3386 26.6189 17.3772 29.8448 17.4318C30.6235 17.4368 31.4011 17.4826 32.1748 17.5692C32.6085 17.6533 33.0313 17.786 33.4349 17.9649C33.7688 18.0878 34.1538 18.6915 34.1423 19.0229C34.1313 19.347 33.6852 19.9399 33.3898 20.0558C32.3361 20.4681 31.2316 20.5499 30.1172 20.5662C27.8922 20.5986 25.6662 20.6817 23.4425 20.6421C20.5522 20.5899 17.6636 20.4425 14.7745 20.3276C12.9961 20.2568 11.2179 20.18 9.44141 20.0842C8.87918 20.0791 8.3362 19.8798 7.90531 19.52C7.77245 19.4201 7.66484 19.2908 7.59102 19.1422C7.51717 18.9936 7.47916 18.8297 7.47999 18.6639C7.49904 18.2827 7.84666 17.7048 8.18474 17.6433C8.72252 17.5215 9.26996 17.4466 9.82082 17.4196C13.2698 17.3995 16.7189 17.4094 20.1678 17.4094L20.1667 17.2942Z" fill="#F38708"/>
<path d="M21.2074 25.628C18.1399 25.5481 15.137 25.4874 12.1356 25.3826C11.1371 25.3433 10.1418 25.2439 9.15539 25.0846C8.72745 24.9848 8.32285 24.8037 7.96366 24.5514C7.88104 24.4849 7.81382 24.4014 7.76657 24.3066C7.71932 24.2117 7.69313 24.108 7.68981 24.0021C7.6865 23.8965 7.70614 23.7912 7.74739 23.6936C7.78863 23.5961 7.85051 23.5084 7.92881 23.4369C8.18885 23.2355 8.49339 23.0991 8.81712 23.0386C9.58632 22.9271 10.3619 22.8641 11.1391 22.8507C15.6996 22.8076 20.2614 22.7137 24.8204 22.7879C27.4835 22.8311 30.1424 23.1515 32.8021 23.3605C33.02 23.4034 33.2312 23.4741 33.4306 23.571C33.7264 23.6778 34.13 24.3796 33.994 24.6609C33.858 24.9422 33.6651 25.2678 33.407 25.3996C32.4927 25.8655 31.4749 25.8808 30.4738 25.8772C27.3616 25.8649 24.2425 26.1001 21.2074 25.628Z" fill="#F38708"/>
<path d="M20.6111 28.5797C23.8404 28.6235 27.07 28.6618 30.2992 28.7155C30.9667 28.7197 31.6334 28.7654 32.2952 28.8523C32.6105 28.897 32.9089 29.0947 33.2024 29.2468C33.5182 29.4105 33.8374 30.0988 33.6824 30.3895C33.5335 30.6683 33.3156 30.9859 33.0464 31.1084C32.6402 31.2814 32.2036 31.373 31.7619 31.3779C28.9787 31.4475 26.1946 31.5312 23.4111 31.524C20.6277 31.5167 17.8411 31.4648 15.0615 31.3261C13.0635 31.2264 11.0727 30.9642 9.08255 30.7416C8.75289 30.7004 8.44268 30.5637 8.1906 30.348C7.97276 30.1134 7.81624 29.8291 7.73483 29.5199C7.66588 29.3137 8.07234 28.7849 8.27671 28.7589C8.93071 28.6491 9.59068 28.578 10.2532 28.5459C13.7055 28.5249 17.1581 28.5363 20.6107 28.5363L20.6111 28.5797Z" fill="#F38708"/>
<path d="M17.0583 36.9621C14.7398 36.8783 12.4209 36.8024 10.1029 36.7058C9.32371 36.7043 8.56248 36.4729 7.91541 36.0407C7.73498 35.9157 7.58999 35.7465 7.49449 35.5492C7.39899 35.3522 7.35624 35.1337 7.37029 34.9152C7.37791 34.5296 7.78627 34.0577 8.13825 33.9198C9.09268 33.5456 10.0863 33.5678 11.0813 33.6104C13.9511 33.7332 16.8231 33.8236 19.6892 34.0055C21.4497 34.1172 23.2016 34.3687 24.9558 34.57C25.171 34.6161 25.3817 34.6807 25.5857 34.7633C25.7824 34.8219 26.1843 35.345 26.0999 35.5426C25.979 35.8271 25.8333 36.1791 25.5903 36.3172C25.2072 36.5279 24.7823 36.6518 24.3456 36.6795C22.6923 36.7859 21.036 36.8502 19.3801 36.9071C18.6076 36.9342 17.8332 36.9118 17.0597 36.9118L17.0583 36.9621Z" fill="#F38708"/>
<path d="M12.6037 14.0969C11.5243 14.0292 10.299 13.9894 9.08502 13.8584C8.53645 13.7771 8.00254 13.6174 7.49977 13.3842C7.34705 13.3175 7.21633 13.2093 7.12262 13.0719C7.02893 12.9346 6.97606 12.7737 6.97008 12.6077C6.94322 12.2373 7.32816 11.6639 7.66147 11.581C7.76659 11.5447 7.87407 11.5155 7.98317 11.4938C10.6426 11.214 13.3048 11.0907 15.9711 11.3925C16.1914 11.4215 16.4052 11.4871 16.6037 11.5864C16.8043 11.6779 16.9797 11.8164 17.1148 11.9902C17.2498 12.164 17.3405 12.3678 17.3791 12.5842C17.444 12.9127 17.0454 13.5252 16.7002 13.6402C16.3946 13.7682 16.075 13.8601 15.7479 13.9143C14.7499 13.9974 13.749 14.0342 12.6037 14.0969Z" fill="#F38708"/>
</g>
<defs>
<clipPath id="clip0_1_829">
<rect width="40.3788" height="47.9864" fill="white" transform="translate(0.20459 0.800049)"/>
</clipPath>
</defs>
</svg>
