<svg xmlns="http://www.w3.org/2000/svg" width="147" height="47" fill="none" xmlns:v="https://vecta.io/nano"><path d="M40.159 26.867c-.064 2.408-.564 4.785-1.476 7.015a26.5 26.5 0 0 0-10.552 4.03l-.295.195a26.75 26.75 0 0 0-7.496 7.626l-.251.396a2.58 2.58 0 0 1-.095-.151 26.73 26.73 0 0 0-7.532-7.794l-.295-.195c-3.16-2.098-6.735-3.489-10.481-4.08-.925-2.236-1.434-4.623-1.5-7.042l.195.021a26.38 26.38 0 0 1 11.792 4.252c.098.062.192.13.295.195A26.73 26.73 0 0 1 20 39.129c.029.053.062.103.095.154l.251-.399c1.961-3.022 4.511-5.617 7.496-7.632l.295-.192a26.4 26.4 0 0 1 11.81-4.187l.213-.006z" fill="#173a01"/><path d="M39.917 24.154c0-.091-.018-.183-.027-.275v-.021c-.388-3.393-1.646-6.629-3.651-9.393a19.84 19.84 0 0 0-7.796-6.387l-.328-.148-.162-.068c-.112-.05-.224-.094-.34-.142l-.41-.162L27 7.484l-.375-.13-.458-.154c-1.776-.561-3.623-.865-5.486-.903V4.801a2.7 2.7 0 0 0 1.033-.174 2.72 2.72 0 0 0 1.585-1.588 2.69 2.69 0 0 1-.803.475c-.491.188-1.026.23-1.541.121s-.986-.365-1.359-.736-.629-.843-.74-1.357-.07-1.049.117-1.541c-.361.307-.635.703-.796 1.149s-.203.925-.122 1.392.282.904.584 1.27.694.645 1.137.813v1.68a19.58 19.58 0 0 0-5.427.886l-.295.092-.351.121-.109.038-.34.124c-.13.047-.254.097-.381.148l-.035.015-.112.047c-.115.044-.227.094-.342.142s-.295.127-.431.195A19.86 19.86 0 0 0 .561 23.882v.032l-.027.295v.272h.313.094.186c3.741.088 7.408 1.063 10.7 2.843l.083.044.059.033.091.05c.024.016.05.03.077.041l.035.018.174.1.05.029h-.015s5.453 3.986 7.381 6.791l.024.038v.018c.03.047.062.091.095.139s.033.05.053.083l.266.407.242-.419c.008-.015.018-.029.03-.041v-.024a2.66 2.66 0 0 1 .13-.189 22.65 22.65 0 0 1 7.381-6.856h.044l.062-.056a.78.78 0 0 1 .083-.05l.068-.038.05-.021.021.059c0-.086.018-.091.03-.097l.174-.083c.016-.014.034-.025.053-.033a23.78 23.78 0 0 1 10.729-2.849h.348.21v-.26l.062-.006zm-20.139 8.798a23.6 23.6 0 0 0-7.103-6.177l-.044-.047c.219-5.766 3.313-10.393 7.148-10.729v16.953zm7.992-6.177a24 24 0 0 0-7.086 6.179V15.996c3.838.339 6.929 4.972 7.142 10.735l-.056.044z" fill="#f38708"/><path d="M145.804 31.822c-1.809 0-3.236-.418-4.281-1.253a10.77 10.77 0 0 1-1.696-1.645l-1.332-1.827-.939-1.488-.914-1.227c-.278-.365-.696-.548-1.253-.548-.278 0-.418.148-.418.444v3.681c0 1.009.07 1.749.209 2.219.035.139.183.261.444.365a6.59 6.59 0 0 0 .887.261 4.75 4.75 0 0 0 .705.078c.07 0 .105.148.105.444 0 .157-.018.305-.052.444l-3.707-.157-1.593.026-1.383.078-.522.052c-.052-.087-.078-.244-.078-.47 0-.279.026-.418.078-.418a3.36 3.36 0 0 0 .626-.078 4.48 4.48 0 0 0 .731-.209c.244-.087.383-.183.418-.287.104-.313.157-1.105.157-2.375v-9.867c0-.992-.053-1.705-.157-2.14-.035-.104-.174-.2-.418-.287a4.33 4.33 0 0 0-.757-.261c-.261-.07-.461-.104-.6-.104-.07 0-.104-.13-.104-.392s.034-.418.104-.47l3.472.078 1.984-.026h1.07l.626-.026c.923 0 1.828.165 2.715.496s1.618.835 2.193 1.514c.591.679.887 1.54.887 2.584 0 .627-.139 1.236-.417 1.827s-.653 1.114-1.123 1.566a5.06 5.06 0 0 1-1.592 1.044c-.139.052-.174.139-.105.261l1.462 2.428 1.462 2.01a12.09 12.09 0 0 0 1.958 1.932c.713.522 1.366.783 1.958.783.069.087.104.226.104.418s-.035.348-.104.47a2.31 2.31 0 0 1-.366.026 3.21 3.21 0 0 1-.444.026zm-9.162-9.241h.679c.644 0 1.218-.305 1.723-.914.522-.609.783-1.401.783-2.375 0-2.367-1.01-3.55-3.028-3.55-.749 0-1.253.061-1.514.183-.209.087-.314.992-.314 2.715v3.002c0 .383.148.635.444.757s.705.183 1.227.183zm-27.101 9.163c-.069-.07-.104-.2-.104-.392 0-.313.017-.47.052-.47.139 0 .339-.035.601-.104.278-.07.539-.157.783-.261.261-.122.426-.244.496-.365a7.06 7.06 0 0 0 .496-.888l.496-1.149 4.855-11.747c.417-1.062.739-1.688.966-1.88a.6.6 0 0 1 .443-.183.43.43 0 0 1 .314.13l5.481 13.678.392.992.391.914c.07.174.227.331.47.47a3.94 3.94 0 0 0 .757.287 2.56 2.56 0 0 0 .601.104c.069 0 .104.157.104.47 0 .191-.017.322-.052.392l-3.289-.157-3.394.157c-.069-.07-.104-.235-.104-.496 0-.244.035-.366.104-.366.209 0 .496-.052.862-.157s.583-.226.652-.366a.74.74 0 0 0 .079-.339c0-.174-.044-.409-.131-.705l-.365-1.096-.914-2.428c-.069-.07-.13-.104-.183-.104l-.992-.026-1.252-.026-2.976.078c-.105 0-.157.035-.157.104l-.992 2.428-.391 1.096c-.07.278-.105.479-.105.6 0 .209.096.383.287.522.105.07.261.139.47.209l.679.157.47.052c.052.017.078.139.078.366a1.65 1.65 0 0 1-.026.313.59.59 0 0 1-.026.183l-1.592-.104-1.123-.052-1.253.026-1.958.131zm8.145-7.518l2.14-.078.052-.104-1.984-5.221-2.14 5.221c0 .07.017.104.052.104l1.88.078zm-11.648 7.596c-1.81 0-3.237-.418-4.281-1.253a10.77 10.77 0 0 1-1.696-1.645l-1.332-1.827-.94-1.488-.914-1.227c-.278-.365-.696-.548-1.253-.548-.279 0-.418.148-.418.444v3.681c0 1.009.07 1.749.209 2.219.035.139.183.261.444.365a6.61 6.61 0 0 0 .888.261c.313.052.548.078.705.078.07 0 .104.148.104.444 0 .157-.017.305-.052.444l-3.707-.157-1.592.026-1.383.078-.522.052c-.052-.087-.078-.244-.078-.47 0-.279.026-.418.078-.418.157 0 .366-.026.627-.078a4.48 4.48 0 0 0 .731-.209c.244-.087.383-.183.418-.287.104-.313.157-1.105.157-2.375v-9.867c0-.992-.052-1.705-.157-2.14-.035-.104-.174-.2-.418-.287a4.33 4.33 0 0 0-.757-.261c-.261-.07-.461-.104-.6-.104-.07 0-.104-.13-.104-.392s.035-.418.104-.47l3.472.078 1.984-.026h1.07l.626-.026a7.72 7.72 0 0 1 2.715.496 5.19 5.19 0 0 1 2.193 1.514c.591.679.887 1.54.887 2.584 0 .627-.139 1.236-.417 1.827s-.653 1.114-1.123 1.566a5.06 5.06 0 0 1-1.592 1.044c-.139.052-.174.139-.105.261l1.462 2.428 1.462 2.01a12.09 12.09 0 0 0 1.958 1.932c.713.522 1.366.783 1.957.783.07.087.105.226.105.418s-.035.348-.105.47a2.24 2.24 0 0 1-.365.026 3.21 3.21 0 0 1-.444.026zm-9.162-9.241h.679c.644 0 1.218-.305 1.723-.914.522-.609.784-1.401.784-2.375 0-2.367-1.01-3.55-3.029-3.55-.748 0-1.253.061-1.514.183-.209.087-.313.992-.313 2.715v3.002c0 .383.148.635.444.757s.705.183 1.227.183zm-18.487 9.137c-2.088 0-3.733-.626-4.934-1.879-1.201-1.27-1.801-3.306-1.801-6.108V18.04c0-1.096-.07-1.827-.209-2.193-.035-.104-.165-.2-.392-.287a3.73 3.73 0 0 0-.705-.209c-.244-.07-.435-.104-.574-.104-.07 0-.105-.131-.105-.392s.026-.418.078-.47l3.472.157 3.341-.157a.86.86 0 0 1 .026.209.86.86 0 0 1 .026.209c0 .296-.035.444-.104.444-.105 0-.296.035-.574.104a4.47 4.47 0 0 0-.731.209c-.226.087-.348.183-.366.287a5.89 5.89 0 0 0-.157.966 14.9 14.9 0 0 0-.052 1.331v6.004c0 1.793.383 3.228 1.149 4.307.783 1.062 1.862 1.592 3.237 1.592 1.34 0 2.41-.435 3.211-1.305.818-.887 1.227-2.349 1.227-4.385v-6.369c0-1.062-.087-1.758-.261-2.088-.07-.104-.244-.209-.522-.313a5.85 5.85 0 0 0-.835-.261c-.296-.07-.522-.104-.679-.104-.07 0-.113-.122-.131-.365 0-.244.026-.4.078-.47l2.219.157 1.07.026.757-.026.992-.078 1.331-.078a.86.86 0 0 1 .026.209.68.68 0 0 1 .026.209c0 .278-.035.418-.104.418-.157 0-.383.035-.679.104a4.84 4.84 0 0 0-.861.235c-.278.104-.47.235-.574.391-.191.47-.287 1.192-.287 2.167v6.134c0 2.715-.635 4.655-1.906 5.821a5.59 5.59 0 0 1-2.088 1.253c-.766.261-1.645.392-2.636.392zm-28.379.026c-.052-.052-.078-.191-.078-.418 0-.296.026-.444.078-.444.157 0 .357-.026.6-.078a4.48 4.48 0 0 0 .731-.209c.244-.087.383-.183.418-.287.122-.348.183-1.14.183-2.375v-9.867c0-1.062-.061-1.775-.183-2.14-.035-.139-.165-.252-.392-.339a2.79 2.79 0 0 0-.731-.235c-.261-.052-.479-.078-.653-.078-.07 0-.104-.13-.104-.392 0-.244.035-.4.104-.47l3.472.078h4.516c1.41 0 2.671.226 3.785.679 1.131.435 2.079 1.044 2.845 1.827.783.783 1.375 1.679 1.775 2.689.418 1.009.627 2.08.627 3.211 0 1.671-.365 3.176-1.096 4.516-.713 1.322-1.749 2.375-3.106 3.159s-2.976 1.175-4.855 1.175c-.174 0-.444-.009-.809-.026-.348 0-.792-.009-1.331-.026l-1.383-.052c-.383-.017-.696-.017-.94 0l-3.472.104zm8.353-1.331c3.533 0 5.299-2.541 5.299-7.622 0-1.305-.218-2.48-.653-3.524-.418-1.062-1.035-1.906-1.853-2.532-.8-.626-1.793-.94-2.976-.94h-.131c-1.671 0-2.61.139-2.819.418-.226.296-.339.835-.339 1.619v10.233c0 .957.096 1.601.287 1.932.278.278 1.34.418 3.185.418z" fill="#173a01"/></svg>