<svg xmlns="http://www.w3.org/2000/svg" width="221" height="70" fill="none" xmlns:v="https://vecta.io/nano"><path d="M60.46 40.301a29.9 29.9 0 0 1-2.214 10.523 39.75 39.75 0 0 0-15.828 6.045l-.443.292A40.13 40.13 0 0 0 30.73 68.6l-.376.593a3.91 3.91 0 0 1-.142-.226 40.1 40.1 0 0 0-11.298-11.692l-.443-.292a39.58 39.58 0 0 0-15.722-6.12A29.75 29.75 0 0 1 .5 40.301l.292.031a39.57 39.57 0 0 1 17.688 6.377l.443.292a40.1 40.1 0 0 1 11.298 11.692l.142.23.376-.598a40.24 40.24 0 0 1 11.244-11.448l.443-.288a39.6 39.6 0 0 1 17.715-6.28l.319-.009z" fill="#fff"/><path d="M60.097 36.231c0-.137-.027-.275-.04-.412v-.031c-.582-5.09-2.468-9.943-5.477-14.09s-7.036-7.447-11.693-9.581l-.492-.221-.244-.102c-.168-.075-.337-.142-.509-.213l-.616-.244-.306-.111-.562-.195-.686-.23a29.34 29.34 0 0 0-8.228-1.355V7.201a4.05 4.05 0 0 0 1.55-.261c.543-.205 1.036-.524 1.446-.935a4.08 4.08 0 0 0 .932-1.448c-.357.306-.765.547-1.205.713-.737.282-1.539.345-2.311.182a4.09 4.09 0 0 1-3.148-3.14A4.09 4.09 0 0 1 28.684 0a4.09 4.09 0 0 0-1.194 1.723c-.242.668-.305 1.388-.183 2.088a4.09 4.09 0 0 0 2.581 3.124v2.52c-2.762.058-5.503.505-8.14 1.329l-.443.137-.527.182-.164.058-.509.186c-.195.071-.381.146-.571.221l-.053.022-.168.071c-.173.066-.341.142-.514.213s-.443.19-.647.292c-4.639 2.146-8.648 5.449-11.641 9.593s-4.87 8.987-5.449 14.066v.049l-.04.443v.407h.469.142.279a35.48 35.48 0 0 1 16.05 4.265l.124.066.089.049.137.075c.036.024.075.045.115.062l.053.027.261.151.075.044h-.022s8.18 5.979 11.072 10.186l.035.058v.027c.044.071.093.137.142.208s.049.075.08.124l.399.611.363-.629c.012-.022.027-.043.044-.062v-.035c.062-.097.124-.191.195-.283 2.872-4.216 6.656-7.73 11.072-10.283h.066l.093-.084a1.16 1.16 0 0 1 .124-.075l.102-.058.075-.031.031.089c0-.128.027-.137.044-.146l.261-.124a.27.27 0 0 1 .08-.049 35.67 35.67 0 0 1 16.094-4.274h.523.314v-.39l.093-.009zM29.889 49.428a35.4 35.4 0 0 0-10.655-9.265l-.066-.071c.328-8.649 4.969-15.589 10.722-16.094v25.429zm11.988-9.265a36 36 0 0 0-10.629 9.269V23.995c5.757.509 10.394 7.458 10.713 16.103l-.084.066z" fill="#f38708"/><path d="M218.928 47.733c-2.715 0-4.856-.626-6.422-1.88a16.2 16.2 0 0 1-2.545-2.467l-1.997-2.741-1.409-2.232-1.371-1.84c-.418-.548-1.044-.822-1.879-.822-.418 0-.627.222-.627.666v5.521c0 1.514.105 2.623.313 3.328.053.209.274.392.666.548.418.157.861.287 1.331.392.47.078.823.117 1.058.117.104 0 .156.222.156.666a2.75 2.75 0 0 1-.078.666l-5.56-.235-2.389.039-2.075.117-.783.078c-.078-.13-.117-.365-.117-.705 0-.418.039-.626.117-.626.235 0 .548-.039.94-.117s.757-.183 1.096-.313c.365-.13.574-.274.627-.431.156-.47.234-1.658.234-3.563v-14.8c0-1.488-.078-2.558-.234-3.211-.053-.157-.262-.3-.627-.431a6.43 6.43 0 0 0-1.135-.392c-.392-.104-.692-.157-.901-.157-.104 0-.157-.196-.157-.587s.053-.626.157-.705l5.208.117 2.975-.039h1.606l.94-.039c1.383 0 2.74.248 4.072.744s2.427 1.253 3.289 2.271c.887 1.018 1.331 2.31 1.331 3.876 0 .94-.209 1.853-.627 2.741s-.978 1.671-1.683 2.349a7.58 7.58 0 0 1-2.389 1.566c-.208.078-.261.209-.156.392l2.192 3.641 2.193 3.015c.914 1.122 1.893 2.088 2.937 2.897 1.07.783 2.049 1.175 2.936 1.175.105.131.157.339.157.627s-.052.522-.157.705c-.156.026-.339.039-.548.039-.182.026-.404.039-.665.039zm-13.744-13.861h1.018c.966 0 1.827-.457 2.584-1.37.783-.914 1.175-2.101 1.175-3.563 0-3.55-1.514-5.325-4.542-5.325-1.122 0-1.879.091-2.271.274-.313.131-.47 1.488-.47 4.072v4.503c0 .574.222.953.666 1.136s1.057.274 1.84.274zm-40.651 13.744c-.104-.104-.157-.3-.157-.587 0-.47.027-.705.079-.705.209 0 .509-.052.9-.157.418-.104.81-.235 1.175-.392.392-.183.64-.365.744-.548a10.55 10.55 0 0 0 .744-1.331l.744-1.723 7.283-17.62c.626-1.592 1.109-2.532 1.448-2.819.183-.183.405-.274.666-.274a.64.64 0 0 1 .47.196l8.223 20.517.587 1.488.587 1.37c.105.261.34.496.705.705a5.96 5.96 0 0 0 1.136.431c.391.104.691.157.9.157.105 0 .157.235.157.705 0 .287-.026.483-.079.587l-4.933-.235-5.09.235c-.105-.104-.157-.352-.157-.744 0-.365.052-.548.157-.548.313 0 .744-.078 1.292-.235s.874-.339.979-.548c.078-.157.117-.326.117-.509 0-.261-.065-.614-.196-1.057l-.548-1.645-1.37-3.642c-.105-.104-.196-.157-.274-.157l-1.488-.039-1.88-.039-4.463.117c-.157 0-.235.052-.235.157l-1.488 3.641-.588 1.644c-.104.418-.156.718-.156.901 0 .313.143.574.431.783.156.104.391.209.704.313l1.018.235.705.078c.078.026.118.209.118.548a2.36 2.36 0 0 1-.04.47.87.87 0 0 1-.039.274l-2.388-.157-1.684-.078-1.879.039-2.937.196zm12.217-11.277l3.21-.117.079-.157-2.976-7.831-3.211 7.831c0 .104.026.157.078.157l2.82.117zm-17.472 11.394c-2.714 0-4.855-.626-6.421-1.88a16.16 16.16 0 0 1-2.545-2.467l-1.997-2.741-1.41-2.232-1.37-1.84c-.418-.548-1.044-.822-1.879-.822-.418 0-.627.222-.627.666v5.521c0 1.514.104 2.623.313 3.328.052.209.274.392.666.548.418.157.861.287 1.331.392.47.078.822.117 1.057.117.105 0 .157.222.157.666a2.75 2.75 0 0 1-.078.666l-5.56-.235-2.389.039-2.075.117-.783.078c-.078-.13-.118-.365-.118-.705 0-.418.04-.626.118-.626.235 0 .548-.039.94-.117s.757-.183 1.096-.313c.365-.13.574-.274.626-.431.157-.47.235-1.658.235-3.563v-14.8c0-1.488-.078-2.558-.235-3.211-.052-.157-.261-.3-.626-.431a6.43 6.43 0 0 0-1.136-.392c-.391-.104-.691-.157-.9-.157-.105 0-.157-.196-.157-.587s.052-.626.157-.705l5.207.117 2.976-.039h1.606l.939-.039c1.384 0 2.741.248 4.073.744s2.427 1.253 3.289 2.271c.887 1.018 1.331 2.31 1.331 3.876 0 .94-.209 1.853-.627 2.741a7.91 7.91 0 0 1-1.683 2.349 7.56 7.56 0 0 1-2.389 1.566c-.209.078-.261.209-.156.392l2.192 3.641 2.193 3.015c.914 1.122 1.892 2.088 2.937 2.897 1.07.783 2.049 1.175 2.936 1.175.105.131.157.339.157.627s-.052.522-.157.705c-.156.026-.339.039-.548.039-.183.026-.405.039-.666.039zm-13.743-13.861h1.018c.966 0 1.827-.457 2.584-1.37.783-.914 1.175-2.101 1.175-3.563 0-3.55-1.514-5.325-4.542-5.325-1.123 0-1.88.091-2.271.274-.313.131-.47 1.488-.47 4.072v4.503c0 .574.222.953.666 1.136s1.057.274 1.84.274zm-27.73 13.705c-3.132 0-5.599-.94-7.4-2.819-1.801-1.906-2.702-4.96-2.702-9.162V27.06c0-1.645-.104-2.741-.313-3.289-.052-.157-.248-.3-.587-.431-.314-.131-.666-.235-1.058-.313-.365-.104-.652-.157-.861-.157-.104 0-.157-.196-.157-.587s.039-.626.118-.705l5.207.235 5.012-.235a1.29 1.29 0 0 1 .039.313c.027.104.04.209.04.313 0 .444-.053.666-.157.666-.157 0-.444.052-.861.157-.392.078-.757.183-1.097.313s-.522.274-.548.431c-.104.392-.183.874-.235 1.449a22.45 22.45 0 0 0-.078 1.997v9.006c0 2.689.574 4.842 1.723 6.461 1.174 1.592 2.793 2.388 4.855 2.388 2.01 0 3.615-.653 4.816-1.958 1.227-1.331 1.84-3.524 1.84-6.578v-9.554c0-1.592-.13-2.637-.391-3.132-.105-.157-.366-.313-.783-.47a8.84 8.84 0 0 0-1.253-.391c-.444-.105-.783-.157-1.018-.157-.105 0-.17-.183-.196-.548 0-.365.039-.6.117-.705l3.329.235 1.605.039 1.135-.039 1.488-.117 1.997-.117a1.29 1.29 0 0 1 .039.313c.026.078.04.183.04.313 0 .418-.053.626-.157.626-.235 0-.574.052-1.018.157a7.24 7.24 0 0 0-1.292.352c-.418.157-.705.352-.862.587-.287.705-.43 1.788-.43 3.25v9.202c0 4.072-.953 6.983-2.859 8.732a8.37 8.37 0 0 1-3.132 1.879c-1.149.392-2.467.587-3.955.587zm-42.569.039c-.078-.078-.118-.287-.118-.626 0-.444.039-.666.118-.666.235 0 .535-.039.9-.117.392-.078.757-.183 1.096-.313.365-.13.574-.274.626-.431.183-.522.274-1.71.274-3.563V27.099c0-1.592-.091-2.663-.274-3.211-.052-.209-.248-.378-.587-.509a4.16 4.16 0 0 0-1.096-.352c-.392-.078-.718-.117-.979-.117-.104 0-.157-.196-.157-.587 0-.365.052-.6.157-.705l5.208.117h6.774c2.114 0 4.007.339 5.678 1.018 1.697.653 3.119 1.566 4.268 2.741a11.81 11.81 0 0 1 2.662 4.033c.626 1.514.94 3.119.94 4.816 0 2.506-.549 4.764-1.645 6.774-1.07 1.984-2.623 3.563-4.659 4.738s-4.464 1.762-7.283 1.762a28.4 28.4 0 0 1-1.214-.039 64.46 64.46 0 0 1-1.997-.039l-2.075-.078c-.574-.026-1.044-.026-1.41 0l-5.208.157zm12.53-1.997c5.299 0 7.949-3.811 7.949-11.433 0-1.958-.326-3.72-.979-5.286-.626-1.592-1.553-2.858-2.78-3.798-1.201-.94-2.689-1.41-4.464-1.41h-.196c-2.506 0-3.915.209-4.229.626-.339.444-.509 1.253-.509 2.428v15.349c0 1.436.144 2.402.431 2.898.418.418 2.01.627 4.777.627z" fill="#fff"/></svg>