<svg width="157" height="157" viewBox="0 0 157 157" fill="none" xmlns="http://www.w3.org/2000/svg">
<g clip-path="url(#clip0_55_2909)">
<path d="M65.0185 44.8983C64.4829 45.1504 63.3959 48.3168 62.1987 53.1057C58.1344 69.4891 57.2207 68.7644 58.3392 69.8829C59.5364 71.0801 59.8042 70.4658 62.9233 60.0371C66.263 48.8524 66.9404 44.0476 65.0185 44.8983Z" fill="#F38708"/>
<path d="M46.4614 61.3444C46.0518 61.3444 45.9886 61.6282 45.9256 63.1404C45.8469 65.3932 47.1701 67.6931 48.0366 66.8267C48.7297 66.102 47.3751 61.3444 46.4614 61.3444Z" fill="#F38708"/>
<path d="M38.8365 63.8331C33.764 53.7195 31.7633 50.4586 30.3298 50.0963C29.164 49.7813 29.2901 50.5374 30.8339 53.1209C32.1729 55.3106 34.4099 59.501 36.505 63.7071C38.2221 67.1571 38.7262 67.8502 39.7187 68.307C41.105 68.9056 40.9002 67.9447 38.8365 63.8331Z" fill="#F38708"/>
<path d="M81.2598 53.547C80.7399 53.7833 77.9518 58.1783 76.4395 61.1084C76.0772 61.8172 75.0059 63.5816 74.0765 65.0151C72.2491 67.7877 72.2017 67.9926 73.0997 68.8906C73.9503 69.7412 73.919 69.7726 76.7388 64.9049C81.6538 56.4297 83.1344 52.7121 81.2598 53.547Z" fill="#F38708"/>
<path d="M46.1142 51.4516C46.2245 53.7673 45.6416 55.1063 46.8073 56.272C48.682 58.1467 48.8868 58.0994 48.9025 53.6097C48.934 45.2921 47.8628 38.4237 46.4765 38.1086C45.1375 37.8408 46.256 42.8346 46.1142 51.4516Z" fill="#F38708"/>
<path d="M106.607 105.076C108.812 105.265 110.639 105.013 111.207 104.446C111.994 103.658 111.254 102.445 109.805 102.224C100.195 100.712 88.6481 101.011 88.7742 102.744C88.9002 104.446 90.4283 104.776 98.4782 104.855C102.023 104.902 105.677 104.997 106.607 105.076Z" fill="#F38708"/>
<path d="M97.2652 70.4344C95.1858 71.5371 90.9324 74.7823 81.0394 80.737C79.0703 81.9185 79.0389 81.9498 79.0704 82.9265C79.1019 83.7142 79.7477 84.6438 80.3935 84.7856C80.9292 84.9116 94.5872 76.5151 99.0138 73.3488C100.715 72.0885 99.6439 69.1584 97.2652 70.4344Z" fill="#F38708"/>
<path d="M107.174 118.718C101.046 115.268 88.8055 110.054 87.5138 110.369C86.6158 110.573 87.4823 112.511 88.7583 113.125L93.5315 115.378C100.872 118.844 110.356 122.656 110.718 122.294C111.443 121.538 110.482 120.577 107.174 118.718Z" fill="#F38708"/>
<path d="M106.087 85.2736C105.362 85.4626 103.314 85.9037 97.5329 86.8332C94.9179 87.2428 89.9398 88.566 89.5618 88.9441C88.8056 89.7003 93.5631 89.2277 102.448 87.6523C104.37 87.3058 106.213 87.038 106.559 87.0695C108.182 87.1482 107.442 84.927 106.087 85.2736Z" fill="#F38708"/>
</g>
<defs>
<clipPath id="clip0_55_2909">
<rect width="110.58" height="110.58" fill="white" transform="translate(78.1919) rotate(45)"/>
</clipPath>
</defs>
</svg>
