<svg width="75" height="75" viewBox="0 0 75 75" fill="none" xmlns="http://www.w3.org/2000/svg">
<path fill-rule="evenodd" clip-rule="evenodd" d="M14.3566 1.73224C11.1909 2.82026 11.2897 2.72145 10.7455 5.09589C9.80571 9.05314 11.1905 43.6796 12.5264 50.6049C12.8726 52.2869 14.9498 52.7813 19.6496 52.3363C21.9743 52.1383 24.8435 52.1383 26.0307 52.3363C29.0976 52.8805 29.9386 52.5339 30.2848 50.3575C30.7298 47.3895 36.6165 22.1125 37.7049 12.3674C37.9004 10.4788 37.1617 8.61365 35.726 7.37113C34.2904 6.1286 25.1897 -2.02701 14.3566 1.73224ZM28.9988 7.07432C29.9386 7.32172 30.1366 7.66792 29.8892 8.65753C29.7406 9.34995 23.4583 42.5418 22.8647 45.9552C22.5679 47.8348 22.5185 47.8348 20.4906 47.6863L18.4126 47.5381C17.7202 32.4508 17.374 21.7165 15.8904 9.84437C15.692 8.36074 16.731 7.02491 18.215 6.77752C21.7767 6.2337 25.6351 6.13451 28.9988 7.07432ZM46.9054 16.7203C45.57 17.4127 45.3724 17.9572 43.5915 26.02C39.6837 43.7784 38.9415 48.9727 40.0299 50.3575C41.5633 52.2869 49.6758 54.8096 53.6331 54.6115C55.3645 54.5127 56.9473 53.4741 57.7385 51.9407C63.1304 41.1076 66.3953 34.7261 69.1159 27.4052C69.7095 25.8224 69.2645 24.0415 67.9785 22.9531C62.438 18.0557 50.8132 14.6426 46.9054 16.7203ZM57.3429 21.7659C62.438 23.6953 63.2296 24.1403 62.7348 24.7339C62.3886 25.1794 51.6543 49.5663 51.1101 50.1101C50.5165 50.7535 46.4604 49.5165 46.8066 48.8241C47.4002 47.6368 49.5766 38.2877 51.3574 28.8398C52.3467 23.5467 53.1383 20.5293 53.5339 20.5293C53.9299 20.5787 55.6115 21.1229 57.3429 21.7663V21.7659ZM13.0208 56.9366C-0.236207 61.636 5.50225 74.25 20.9357 74.25C30.1366 74.25 35.2316 71.0346 34.9348 67.2753C34.5886 63.1695 21.1333 54.0677 13.0211 56.9366H13.0208ZM43.0473 60.4982C33.3516 65.2965 38.3479 73.7552 50.8627 73.7552C58.6783 73.7552 64.763 68.7589 61.9432 64.7029C59.47 61.24 47.1528 58.47 43.0473 60.4982ZM25.6351 63.0706C29.7406 65.9889 29.0482 67.7697 23.0627 69.5999C16.6816 71.5294 11.5865 69.8968 11.5865 66.7311C11.5371 65.2471 17.2752 57.1346 25.6351 63.0706ZM52.5447 63.7137C58.5796 67.1761 54.7705 72.2712 47.8452 69.9959C44.3828 68.8581 43.5912 66.5331 45.7182 63.8125C47.3014 61.636 48.8842 61.636 52.5447 63.7137Z" fill="#F38708"/>
</svg>
