<svg width="13" height="24" viewBox="0 0 13 24" fill="none" xmlns="http://www.w3.org/2000/svg">
<path d="M0.907477 12.5809H3.45112V23.0527C3.45112 23.2594 3.61864 23.4269 3.82539 23.4269H8.13823C8.34498 23.4269 8.5125 23.2594 8.5125 23.0527V12.6302H11.4366C11.6268 12.6302 11.7867 12.4876 11.8084 12.2987L12.2526 8.44353C12.2648 8.33746 12.2311 8.23124 12.1602 8.15167C12.0891 8.07203 11.9875 8.02644 11.8808 8.02644H8.51265V5.60983C8.51265 4.88134 8.90489 4.51193 9.67859 4.51193C9.78885 4.51193 11.8808 4.51193 11.8808 4.51193C12.0876 4.51193 12.2551 4.34433 12.2551 4.13766V0.598968C12.2551 0.392219 12.0876 0.224693 11.8808 0.224693H8.84583C8.82442 0.223645 8.77689 0.221924 8.70683 0.221924C8.18022 0.221924 6.3498 0.325298 4.9039 1.65547C3.30186 3.12951 3.52455 4.89444 3.57777 5.20044V8.02636H0.907477C0.700728 8.02636 0.533203 8.19389 0.533203 8.40064V12.2066C0.533203 12.4133 0.700728 12.5809 0.907477 12.5809Z" fill="#F38708"/>
</svg>
