<svg width="68" height="68" viewBox="0 0 68 68" fill="none" xmlns="http://www.w3.org/2000/svg">
<path d="M10.4581 47.6203C-4.33093 28.5077 -2.12008 10.2795 15.5678 5.80852C20.9724 4.43293 27.9003 6.00504 31.7324 9.44453L33.6979 11.2131L36.5967 9.49339C53.3509 -0.627883 73.9865 18.0426 65.2408 35.3863C57.2812 51.1579 31.3886 68.1086 26.0824 61.0334C24.51 58.921 25.296 58.6261 29.4724 59.6578C33.4522 60.6404 51.8277 44.3285 56.397 35.7304C61.8997 25.4123 60.8191 19.8112 52.0242 12.7364C48.3885 9.83755 42.7382 11.1147 38.3161 15.9298C34.8278 19.6639 31.1921 19.9588 28.1949 15.2422C19.6953 1.97635 5.74113 12.4906 9.72095 29.1464C11.3915 36.025 13.2096 39.4645 20.1372 48.6029C24.8541 54.7936 25.0011 55.0885 23.429 55.9238C20.4318 57.5451 15.7643 54.5482 10.4581 47.6203Z" fill="#F38708"/>
<path d="M46.9643 19.2224C44.5566 18.7802 46.571 16.0779 48.831 16.8639C50.6981 17.5519 53.3023 18.6821 54.3341 21.5806C55.4643 24.6267 53.2039 27.5747 51.9264 27.2309C50.7965 26.936 50.4527 25.6585 50.6 23.0546C50.7473 20.4504 49.3717 19.6643 46.9643 19.2224Z" fill="#F38708"/>
<path d="M52.4669 34.7964C49.2731 35.5336 46.8657 33.1259 48.2905 31.5046C49.3715 30.3255 53.4494 30.2271 54.6285 31.4065C55.6111 32.4383 54.9727 34.2069 52.4669 34.7964Z" fill="#F38708"/>
</svg>
