<svg width="22" height="21" viewBox="0 0 22 21" fill="none" xmlns="http://www.w3.org/2000/svg">
<path d="M16.9067 3.96045C16.2106 3.96045 15.6885 4.48256 15.6885 5.17871C15.6885 5.87486 16.2106 6.39697 16.9067 6.39697C17.6029 6.39697 18.125 5.87486 18.125 5.17871C18.125 4.48256 17.6029 3.96045 16.9067 3.96045Z" fill="#F38708"/>
<path d="M11.4246 5.52661C8.55301 5.52661 6.29053 7.87612 6.29053 10.6607C6.29053 13.4453 8.64003 15.7948 11.4246 15.7948C14.2092 15.7948 16.5587 13.4453 16.5587 10.6607C16.5587 7.87612 14.2963 5.52661 11.4246 5.52661ZM11.4246 13.9674C9.59724 13.9674 8.11792 12.4881 8.11792 10.6607C8.11792 8.83332 9.59724 7.35401 11.4246 7.35401C13.252 7.35401 14.7313 8.83332 14.7313 10.6607C14.7313 12.4881 13.252 13.9674 11.4246 13.9674Z" fill="#F38708"/>
<path d="M15.6016 0.131836H7.33479C3.76702 0.131836 0.982422 2.91644 0.982422 6.39719V14.664C0.982422 18.1447 3.76702 20.9293 7.24777 20.9293H15.5146C18.9953 20.9293 21.7799 18.1447 21.7799 14.664V6.39719C21.8669 2.91644 19.0823 0.131836 15.6016 0.131836ZM19.8655 14.751C19.8655 17.1005 17.9511 19.1019 15.5146 19.1019H7.24777C4.89827 19.1019 2.89683 17.1875 2.89683 14.751V6.4842C2.89683 4.1347 4.81125 2.13327 7.24777 2.13327H15.5146C17.8641 2.13327 19.8655 4.04768 19.8655 6.4842V14.751Z" fill="#F38708"/>
</svg>
