<svg width="19" height="20" viewBox="0 0 19 20" fill="none" xmlns="http://www.w3.org/2000/svg">
<path fill-rule="evenodd" clip-rule="evenodd" d="M18.6119 19.2412H14.8991V12.7448C14.8991 10.9626 14.1129 9.96831 12.7029 9.96831C11.1686 9.96831 10.2581 11.0044 10.2581 12.7448V19.2412H6.54525V7.17465H10.2581V8.53159C10.2581 8.53159 11.4229 6.48756 14.0479 6.48756C16.6738 6.48756 18.6119 8.08995 18.6119 11.4055V19.2412ZM2.31452 5.24482C1.06238 5.24482 0.0478516 4.22201 0.0478516 2.96058C0.0478516 1.70009 1.06238 0.677246 2.31452 0.677246C3.56573 0.677246 4.58025 1.70009 4.58025 2.96058C4.58118 4.22201 3.56573 5.24482 2.31452 5.24482ZM0.0478516 19.2412H4.68885V7.17465H0.0478516V19.2412Z" fill="#F38708"/>
</svg>
