<svg width="99" height="99" viewBox="0 0 99 99" fill="none" xmlns="http://www.w3.org/2000/svg">
<path fill-rule="evenodd" clip-rule="evenodd" d="M28.8937 1.92834C12.8812 4.95185 4.65123 16.9337 4.65123 37.4811C4.5949 58.533 25.8149 71.4662 47.6501 63.6841L51.6813 62.2282C54.9845 65.6994 55.5444 65.6994 52.0173 67.827C49.2177 69.5067 49.4974 71.2424 51.2894 71.9145C53.6966 72.81 68.3101 86.863 70.2696 90.2785C77.4923 102.876 95.5203 98.453 94.2887 88.5987C93.7288 84.1197 90.3134 78.9128 86.2822 75.2177C81.8033 71.0743 79.2838 67.7153 75.9801 61.4444C72.7891 55.3415 69.9336 53.9978 65.7907 56.5177C63.9987 57.5812 63.8307 57.6371 62.8789 56.7416C60.9194 55.0059 61.0315 53.8302 63.4388 50.1909C72.621 36.0815 73.1246 23.7641 65.0064 13.9661C53.6966 0.30489 44.0108 5.23207 50.6178 9.48714C66.6862 19.7887 65.8465 40.7285 48.7141 56.5177C39.1958 65.3075 20.0475 60.6047 15.1209 48.2873C7.33819 28.6913 20.1597 2.82434 40.9314 6.96771C48.0979 8.81503 50.9533 -2.21454 28.8937 1.92834ZM26.6545 15.8697C24.2467 17.8851 25.8144 19.6207 30.2933 16.5414C33.429 14.4143 34.9408 14.0219 37.7962 14.694C41.5472 15.5342 43.8428 14.5823 42.6671 12.6787C42.2752 12.0066 34.0448 9.65517 26.654 15.8697H26.6545ZM49.1055 15.1418C46.0825 14.9737 45.2987 16.6535 47.3699 18.8374C49.9456 21.5807 55.0967 22.0285 54.8165 19.509C54.649 17.7734 51.4011 15.254 49.1055 15.1418ZM68.5898 62.0601C69.0381 63.9079 73.4607 70.4027 75.8126 72.81C78.668 75.6655 79.8996 77.5691 83.5947 81.6003C91.0972 89.8307 82.1388 98.0048 75.0846 87.7032C66.1821 74.7136 57.8958 70.6266 58.008 69.1148C58.1761 67.2112 68.1979 60.4925 68.5898 62.0601Z" fill="#F38708"/>
</svg>
