<svg width="49" height="49" viewBox="0 0 49 49" fill="none" xmlns="http://www.w3.org/2000/svg">
<path fill-rule="evenodd" clip-rule="evenodd" d="M31.1924 0.771511C29.0524 1.27359 27.5466 2.62095 24.7459 6.61038C23.9533 7.74642 23.1607 8.67113 22.9757 8.67113C22.421 8.67113 20.8886 9.62218 20.281 10.9432C19.9639 11.6303 19.3563 12.5284 18.9336 12.9776C17.4542 14.9063 19.462 14.9855 16.0802 19.3449C10.9548 26.0027 8.89382 29.3053 8.70883 31.1018C8.49752 33.3212 4.79884 45.1045 5.53858 47.1389C6.04044 48.5655 7.73144 48.8563 10.1885 48.1163C14.6006 46.7953 22.5004 40.983 24.0064 39.6885C25.935 38.0238 31.3511 28.4598 32.0116 28.4334C32.7513 28.4069 34.2837 27.6672 34.5479 27.403C35.7633 26.1877 39.2243 20.3488 39.5412 18.8428C39.6733 18.2089 39.4883 17.6276 39.4883 16.8878C39.4883 16.4386 40.1491 15.4084 41.4435 13.7966C44.0327 10.5998 44.059 10.5206 42.5267 7.3501C39.7791 1.82833 36.0802 -0.338192 31.1924 0.771511ZM34.6536 2.09254C36.9257 2.64749 39.0922 4.54961 40.3867 7.05956C41.6285 9.51663 41.3907 10.1243 37.3486 15.0649C37.2428 15.1705 36.9257 14.4836 36.4502 13.7703C34.6271 10.9698 31.6153 8.93534 27.573 8.51269C26.0143 8.35404 25.6443 8.96168 28.3656 5.26301C29.3168 3.96832 29.8716 3.25493 30.2942 2.80594C31.0076 2.09254 32.54 1.59047 34.6536 2.09254ZM28.4713 10.3885C32.1437 11.5774 33.4382 12.3435 35.5783 16.3329C36.952 18.8957 36.8199 18.6052 35.2613 20.4809C34.6534 21.2207 34.6007 21.2207 34.4158 20.7451C33.7818 18.9749 33.2534 18.0239 31.7474 16.5708C28.9732 14.1929 28.2071 14.8271 30.4529 17.4162C33.0155 20.4017 33.5439 22.1191 32.5663 24.3383C31.9852 25.6329 31.5624 26.0819 31.4303 25.5272C29.7658 19.3712 26.0935 16.7557 21.972 16.3858C20.2546 16.2273 20.0168 15.831 20.968 14.7742C21.5491 14.14 22.3946 14.4308 24.4554 14.695C25.3801 14.8271 25.433 13.5589 24.4025 13.2947C23.0551 12.9511 22.606 12.5021 23.6362 10.9169C24.5875 9.51663 25.4859 9.41086 28.4713 10.3885ZM25.9877 11.6566C25.4859 11.9737 25.3536 12.6342 27.0709 13.2418C28.709 13.8231 29.5545 13.4003 29.5545 12.6606C29.5545 12.37 29.3432 11.9208 28.6298 11.7624C27.6787 11.5245 26.2785 11.4716 25.9877 11.6566ZM23.3986 18.0239C23.6891 18.2089 23.7157 18.2352 22.7381 19.6883C20.3339 23.2551 19.3563 24.6288 18.6429 25.448C18.2466 25.8972 17.3484 27.2445 16.635 28.4334C14.3364 32.3436 12.3287 33.5854 11.4567 31.6302C11.1398 30.9434 11.2188 30.1508 11.6151 29.5429C12.7511 27.7993 18.9073 18.1031 20.4131 17.7068C21.6549 17.3634 22.9494 17.7333 23.3986 18.0239ZM26.4898 19.5826C28.4448 21.617 28.709 22.9117 27.1767 24.7875C24.3233 28.3013 19.8318 34.3515 18.0352 35.6462C16.82 36.518 16.2387 33.9815 16.5823 32.3965C17.0313 30.2563 18.8279 27.3766 22.7909 22.1719C25.063 19.1336 25.4593 18.5259 26.4898 19.5826ZM29.2111 26.1085C29.2903 26.6896 29.6074 27.4822 28.9732 28.3542C28.524 28.9882 27.0709 31.3924 25.9085 33.321C23.9006 36.7028 21.2586 38.9486 21.0473 38.3675C20.7831 37.6541 22.2889 34.2723 23.6891 32.3436C27.203 27.6145 28.8675 23.7835 29.2111 26.1085ZM14.5214 34.5628C14.6006 36.6501 15.8424 37.5483 17.9031 36.9936C19.2242 36.6501 19.2242 36.6236 18.6958 37.8654C18.4581 38.4202 18.326 39.2128 18.3787 39.6356C18.5108 40.4811 18.2202 40.5867 16.186 41.8814C15.8953 42.0662 15.5253 41.9869 15.3405 41.6964C14.2837 40.0846 12.804 39.2657 11.1396 39.0014C9.4751 38.7372 9.58087 39.028 10.0827 36.3859L10.5056 34.1402C10.849 34.1402 12.1172 34.4307 13.3061 33.9023C13.8082 33.691 14.3366 33.4797 14.3366 33.4797C14.3366 33.4797 14.5214 33.9815 14.5214 34.5628Z" fill="#F38708"/>
</svg>
