<svg width="53" height="53" viewBox="0 0 53 53" fill="none" xmlns="http://www.w3.org/2000/svg">
<path fill-rule="evenodd" clip-rule="evenodd" d="M22.1026 0.936664C15.5197 1.60339 14.4364 2.3255 12.9919 7.04755C5.99236 29.824 5.7146 44.24 5.7702 43.2955C5.6867 44.6567 6.02005 45.9899 6.68678 47.1842C8.29778 50.0173 9.9088 51.0451 13.8531 51.7672C23.0469 53.4617 31.8799 51.7672 36.4907 50.1008C40.546 48.6287 39.3238 47.7398 40.3239 44.6011C43.2958 35.4626 48.129 14.4638 47.1012 7.15852C46.9347 5.99207 46.4624 5.90857 45.9625 5.49192C44.1847 4.0477 43.4349 2.04774 41.1295 1.38102C36.0741 -0.0353025 24.5469 0.686584 22.1026 0.936664ZM37.7963 2.57558L39.3794 2.85334C39.9905 2.99223 40.4351 3.51986 40.4351 4.13099V6.10305C40.4351 14.7971 35.8242 34.657 32.3521 40.8235C29.7133 45.5453 29.0189 45.851 20.436 46.0176C9.71431 46.2398 7.99212 45.462 8.29778 40.6846C8.54765 36.5181 11.1308 22.7689 12.9642 15.9359C13.2974 14.7136 13.9085 12.2416 14.3529 10.4361C15.7696 4.71421 19.7416 1.71437 21.3526 5.10317C21.7137 5.88088 22.1859 6.29753 23.5469 6.492C25.9358 6.79747 34.0464 6.10305 34.0187 6.10305C34.8241 6.04745 35.4908 5.51983 35.7684 4.76981C36.1574 3.71434 36.8241 2.40879 37.7963 2.57558ZM34.5743 3.35328C34.3519 3.85323 33.9908 4.38086 33.5186 4.49205C32.6853 4.68652 31.1578 4.76981 28.4634 4.8531L23.4359 4.93639C23.1858 4.93639 22.9359 4.82541 22.7971 4.63092L22.0191 3.63105C21.797 3.01992 21.8526 2.96432 22.908 2.82565C24.1859 2.63118 32.3244 2.40879 34.3242 2.49208C34.7687 2.49208 34.9909 2.35318 34.5743 3.35328ZM37.6018 45.6842C37.4352 46.2121 36.7406 46.2953 36.4351 45.8787C36.0462 45.3511 35.5741 44.6843 35.1298 43.9622C34.852 43.5177 34.7964 42.99 34.9909 42.5178C39.1851 31.4906 40.6293 25.5465 43.296 6.29753C43.3237 6.13074 43.4349 6.01976 43.6015 5.99207C43.768 5.96416 43.9069 6.01976 43.9902 6.15865L44.8791 7.51979C45.2125 8.04742 45.407 8.65855 45.3791 9.29737C45.2125 17.3803 39.3517 40.2957 37.6018 45.6842ZM34.8797 48.7397C34.5187 48.8785 32.7409 49.3508 31.1022 49.7118C24.6025 51.184 15.2697 50.7673 11.6587 49.5729C11.4088 49.4897 8.65884 46.7399 9.8532 46.8232C10.4087 46.8788 12.9086 47.3231 14.0197 47.462C19.8249 48.1008 26.9357 47.8231 30.7688 46.4342C32.7965 45.6842 32.5743 44.2121 33.1019 44.712C33.1575 44.7399 36.4907 48.1008 34.8797 48.7397Z" fill="#F38708"/>
</svg>
