<svg width="38" height="38" viewBox="0 0 38 38" fill="none" xmlns="http://www.w3.org/2000/svg">
<path d="M31.939 29.5981C32.705 28.9556 32.1614 28.3378 30.8022 28.3378C29.3442 28.3378 27.4909 24.977 27.4909 22.407C27.4909 21.122 27.6639 21.0479 30.2091 21.0479C37.4991 21.0479 40.0938 14.8205 34.8797 9.82878C27.4662 2.71184 17.1367 12.0281 20.794 22.5306C22.6721 27.8436 29.1466 31.9457 31.939 29.5981Z" fill="#F38708"/>
<path d="M1.98853 23.791C4.0396 28.1155 10.7859 31.8964 13.5289 30.2901C14.2949 29.8453 13.9984 29.4252 12.1203 28.2391C8.5124 25.9409 7.40038 22.16 10.3411 22.16C18.5947 22.16 20.6211 10.4961 12.7875 8.07438C3.3971 5.18311 -2.68196 14.0299 1.98853 23.791Z" fill="#F38708"/>
</svg>
