<svg width="56" height="51" viewBox="0 0 56 51" fill="none" xmlns="http://www.w3.org/2000/svg">
<g clip-path="url(#clip0_1_820)">
<path d="M28.1104 26.2035C24.1709 25.9937 20.6612 25.3239 17.7336 22.8884C15.6052 21.1176 14.3437 18.8248 13.8252 16.1403C12.691 10.2749 15.9195 5.18617 20.7699 2.68458C24.1484 0.941981 27.7066 0.268056 31.4885 0.85224C34.7159 1.35052 37.0765 3.17038 38.9881 5.68425C39.6354 6.53563 40.3951 7.34439 40.8455 8.29441C41.7755 10.2591 42.5663 12.2744 42.0297 14.5644C41.5275 16.7059 40.9057 18.7722 39.5068 20.5224C37.0505 23.5955 33.9471 25.5471 29.9693 25.981C29.2593 26.0581 28.5529 26.1503 28.1104 26.2035ZM17.2711 14.899C17.6976 18.0758 19.2716 20.3511 22.2148 21.5264C23.4056 21.9622 24.6441 22.2555 25.9042 22.3999C29.9739 22.975 33.4672 21.9196 36.0551 18.566C37.2197 17.1249 37.787 15.2939 37.6402 13.4488C34.3469 12.8387 31.3673 11.7354 28.953 9.33341C25.8417 12.8668 21.7207 14.1588 17.2704 14.899H17.2711Z" fill="#F38708"/>
<path d="M34.9322 49.9647C29.9683 49.9647 25.0041 49.9392 20.0408 49.9721C15.7563 50.0006 11.4731 50.1233 7.18794 50.1423C5.99889 50.1502 4.81228 50.0332 3.64778 49.7934C1.4708 49.3365 0.76867 48.1089 1.31639 45.95C1.75128 44.2365 2.63984 42.7313 3.57601 41.2596C7.37828 35.2737 12.821 31.3558 19.3737 28.8452C22.9304 27.4531 26.7102 26.7145 30.5306 26.6647C36.0648 26.6235 41.204 27.9614 45.6176 31.5322C48.7572 34.0373 51.3317 37.174 53.1736 40.7382C53.7174 41.7947 54.2995 42.8394 54.7392 43.939C55.1288 44.887 55.4077 45.8766 55.5702 46.8882C55.8043 48.4627 54.9498 49.5136 53.3809 49.7028C52.2801 49.8457 51.1722 49.9251 50.0621 49.9408C45.0188 49.9656 39.9755 49.9517 34.9322 49.9517V49.9647ZM51.6442 46.2135C51.6623 46.0051 51.6967 45.9182 51.672 45.853C50.0526 41.5664 47.7565 37.7221 44.2212 34.7173C42.148 32.9555 39.8601 31.5487 37.1888 30.8554C33.6338 29.9642 29.93 29.8322 26.3202 30.4683C17.3704 31.9421 10.2207 36.2844 5.34018 44.0488C4.82101 44.8749 4.40751 45.7675 3.91737 46.6798C5.54592 47.151 7.02866 46.9632 8.53461 46.8722C11.4622 46.6955 14.3998 46.6314 17.3344 46.6154C26.5468 46.5656 35.7597 46.5714 44.9721 46.5277C47.033 46.5179 49.0936 46.3952 51.154 46.3181C51.3201 46.2964 51.484 46.2612 51.6442 46.2128V46.2135Z" fill="#173A01"/>
</g>
<defs>
<clipPath id="clip0_1_820">
<rect width="54.7958" height="49.7818" fill="white" transform="translate(0.924316 0.574341)"/>
</clipPath>
</defs>
</svg>
