<svg width="83" height="83" viewBox="0 0 83 83" fill="none" xmlns="http://www.w3.org/2000/svg">
<path fill-rule="evenodd" clip-rule="evenodd" d="M82.0614 23.7815C80.9577 16.3745 79.9521 8.86948 79.9276 7.47146C79.8295 3.81704 76.5184 4.69999 69.8227 6.14706C65.923 6.98094 59.816 7.81484 58.6632 7.6922C56.8483 7.47147 56.3087 8.894 57.9275 9.58074C59.35 10.1694 62.7346 14.3143 62.7591 14.3389C62.7346 14.3634 43.6531 39.7972 38.5516 48.7739C37.497 50.6379 37.497 50.6376 37.1291 48.8472C36.565 46.1248 34.6029 39.2086 33.4501 35.6278C31.9785 31.0904 30.3843 32.145 27.1223 35.7013C24.8904 38.154 7.37858 56.4752 1.6394 64.4708C0.584763 65.9423 0.560236 67.929 1.56582 69.4251C2.12993 70.2835 2.76762 71.2646 3.47889 72.4909C7.42764 79.3828 8.87468 79.7262 12.3574 74.6492C19.9606 63.5633 18.8569 65.3292 23.7622 58.9278C25.43 56.745 25.9205 56.2544 26.0431 56.5978C26.1413 56.8431 26.828 59.0259 27.6128 61.454C30.973 72.0249 32.1012 74.4775 33.6954 74.7473C35.4858 75.0416 36.2952 74.2568 40.5137 67.9535C43.7267 63.1464 43.1133 64.8877 51.1334 52.5019C53.1691 49.3625 67.8361 30.3301 72.0301 22.9476C72.9376 21.3779 72.8885 21.4025 73.2074 21.8685C73.5998 22.408 74.5809 22.5797 77.009 24.4435C81.1539 27.6074 82.601 27.4114 82.0614 23.7815ZM9.95385 61.3804C9.90479 61.92 8.99731 71.657 8.38415 72.8097C8.26152 73.0305 7.94267 72.6871 7.40311 71.7061C6.96163 70.9212 6.17678 69.6458 5.6372 68.8855C4.41088 67.0951 4.36182 67.3646 6.76542 64.1762C10.2236 59.6634 10.1501 59.7372 9.95385 61.3804ZM15.7176 58.8542L15.3987 63.6123C15.3987 63.6123 13.1423 66.7762 12.3819 67.8799C10.6896 70.3571 10.7387 70.4307 11.033 66.3102C11.1802 64.4463 11.5971 58.1672 11.5971 58.1672L13.7309 55.5186C16.2816 52.3548 16.159 52.1831 15.7176 58.8542ZM22.683 47.4004C22.2906 50.0983 22.0699 53.7037 21.9227 55.6903C21.0888 56.5978 20.2059 57.5543 18.8324 59.3448C17.4099 61.2088 17.4344 61.2088 17.7042 58.7561C17.974 56.3771 17.7042 52.6736 17.6306 50.9077L20.1568 48.0136C23.1981 44.5799 23.1 44.6044 22.683 47.4004ZM27.3676 50.0735C27.2204 51.3734 27.1711 51.4718 26.4353 51.619C25.4052 51.8152 24.0565 53.0905 23.7622 53.3113C23.9584 50.8586 24.547 43.2555 24.547 43.2309C28.226 39.3558 29.2806 38.2766 29.3297 38.2766C29.4523 38.2766 27.9072 45.4381 27.3676 50.0735ZM31.8069 61.0371C31.7087 61.1352 29.5011 54.415 29.1823 53.4339C29.1823 53.4094 30.8748 40.7538 30.8748 40.7292C31.0956 40.1161 33.1801 48.4058 33.6706 50.3188C33.5725 50.7603 31.8804 60.939 31.8069 61.0371ZM39.3855 61.1352C39.1648 63.4407 38.8947 62.9747 35.927 67.4385C34.6271 69.376 34.6519 69.376 33.8671 67.0951C33.1313 64.9613 33.7199 65.6971 34.4312 58.3882C34.75 55.0772 34.75 55.0769 35.167 55.8372C36.0009 57.3824 37.3989 58.3392 38.7969 56.5242C39.0176 56.2544 40.0475 53.6792 40.1701 53.8018C40.2192 53.8508 39.6308 58.6335 39.3855 61.1352ZM46.7679 51.3982C46.6944 51.8152 45.5171 53.7773 44.1927 55.813C41.3721 60.056 41.5681 60.2032 42.0096 53.9735L42.2796 50.1719L46.7434 43.5741C46.7679 44.5306 46.9396 50.4662 46.7679 51.3982ZM49.196 48.0136C49.0979 47.9155 48.8036 43.0838 48.6565 40.9009L53.3655 33.96C53.4882 36.3145 53.5372 36.5843 53.9787 41.7839C53.5127 42.4216 49.2941 48.1362 49.196 48.0136ZM55.3522 37.737C55.156 35.6277 54.8859 33.5185 54.6897 32.0959C57.3386 28 57.5105 27.7548 57.7312 27.7303C58.001 27.7303 57.7312 30.4772 58.418 35.7013C55.622 39.7972 55.5729 40.1651 55.3522 37.737ZM60.4534 32.4393C60.4289 32.1941 59.5707 24.8114 59.5707 24.8114L61.508 22.2361C63.838 19.1213 63.6911 19.1458 63.8873 21.7701C64.0836 24.2475 64.4515 25.6455 64.7212 26.7492C60.9197 32.2676 60.5025 32.9053 60.4534 32.4393ZM66.6098 24.2966C66.5117 24.2966 66.1192 20.1516 65.6042 18.3857C65.2363 17.1349 65.4568 16.1538 66.6586 15.6878C67.6151 15.3199 67.3701 13.7748 66.2419 13.2106C65.1137 12.6465 62.906 10.3165 62.5381 9.94864C62.5627 9.94864 67.2229 9.04116 67.2229 9.43359C67.2229 10.0222 68.0323 16.6689 68.3512 18.68L68.7681 21.2798C67.6889 22.8495 66.6833 24.2966 66.6098 24.2966ZM70.9507 19.0724C70.5338 19.1705 70.4359 19.0479 70.3132 18.0178C70.1416 16.5953 69.0624 9.87506 68.9153 9.36001C68.8417 9.09021 69.1115 8.94306 69.7982 8.84495C71.6867 8.55063 72.1282 8.59968 72.1282 9.04116C72.1282 9.53169 72.4713 15.0501 72.9128 19.3913C72.6921 19.3177 71.5884 18.9008 70.9507 19.0724ZM75.1695 20.3969C75.0468 17.8461 74.8997 14.02 74.4827 11.1749C73.9922 7.86389 73.9922 7.91294 74.7771 7.79031C75.8317 7.64315 75.9053 7.6922 76.2486 8.96758C76.7146 10.7335 77.5485 18.9253 78.1127 22.3835L75.1695 20.3969Z" fill="#F38708"/>
</svg>
