<svg xmlns="http://www.w3.org/2000/svg" width="41" height="47" fill="none" xmlns:v="https://vecta.io/nano"><path d="M40.159 26.867c-.064 2.408-.564 4.785-1.476 7.015a26.5 26.5 0 0 0-10.552 4.03l-.295.195a26.75 26.75 0 0 0-7.496 7.626l-.251.396a2.58 2.58 0 0 1-.095-.151 26.73 26.73 0 0 0-7.532-7.794l-.295-.195c-3.16-2.098-6.735-3.489-10.481-4.08-.925-2.236-1.434-4.623-1.5-7.042l.195.021a26.38 26.38 0 0 1 11.792 4.252c.098.062.192.13.295.195A26.73 26.73 0 0 1 20 39.129c.029.053.062.103.095.154l.251-.399c1.961-3.022 4.511-5.617 7.496-7.632l.295-.192a26.4 26.4 0 0 1 11.81-4.187l.213-.006z" fill="#173a01"/><path d="M39.917 24.154c0-.091-.018-.183-.027-.275v-.021c-.388-3.393-1.646-6.629-3.651-9.393a19.84 19.84 0 0 0-7.796-6.387l-.328-.148-.162-.068c-.112-.05-.224-.094-.34-.142l-.41-.162L27 7.484l-.375-.13-.458-.154c-1.776-.561-3.623-.865-5.486-.903V4.801a2.7 2.7 0 0 0 1.033-.174 2.72 2.72 0 0 0 1.585-1.588 2.69 2.69 0 0 1-.803.475c-.491.188-1.026.23-1.541.121s-.986-.365-1.359-.736-.629-.843-.74-1.357-.07-1.049.117-1.541c-.361.307-.635.703-.796 1.149s-.203.925-.122 1.392.282.904.584 1.27.694.645 1.137.813v1.68a19.58 19.58 0 0 0-5.427.886l-.295.092-.351.121-.109.038-.34.124c-.13.047-.254.097-.381.148l-.035.015-.112.047c-.115.044-.227.094-.342.142s-.295.127-.431.195A19.86 19.86 0 0 0 .561 23.882v.032l-.027.295v.272h.313.094.186c3.741.088 7.408 1.063 10.7 2.843l.083.044.059.033.091.05c.024.016.05.03.077.041l.035.018.174.1.05.029h-.015s5.453 3.986 7.381 6.791l.024.038v.018c.03.047.062.091.095.139s.033.05.053.083l.266.407.242-.419c.008-.015.018-.029.03-.041v-.024a2.66 2.66 0 0 1 .13-.189 22.65 22.65 0 0 1 7.381-6.856h.044l.062-.056a.78.78 0 0 1 .083-.05l.068-.038.05-.021.021.059c0-.086.018-.091.03-.097l.174-.083c.016-.014.034-.025.053-.033a23.78 23.78 0 0 1 10.729-2.849h.348.21v-.26l.062-.006zm-20.139 8.798a23.6 23.6 0 0 0-7.103-6.177l-.044-.047c.219-5.766 3.313-10.393 7.148-10.729v16.953zm7.992-6.177a24 24 0 0 0-7.086 6.179V15.996c3.838.339 6.929 4.972 7.142 10.735l-.056.044z" fill="#f38708"/></svg>